<svg width="20" height="20" viewBox="0 0 20 20" fill="none" xmlns="http://www.w3.org/2000/svg">
<path d="M17.915 9.99688L19.7113 8.23888C20.2467 7.73196 19.997 6.8311 19.2947 6.66314L16.8474 6.03853L17.5373 3.61607C17.7323 2.91927 17.0752 2.26205 16.3787 2.45705L13.957 3.14716L13.3326 0.699079C13.1674 0.00771268 12.2565 -0.245139 11.7574 0.282361L10 2.09259L8.24263 0.2824C7.74927 -0.239123 6.83454 -0.000177994 6.66743 0.699118L6.04306 3.1472L3.62137 2.45709C2.92461 2.26201 2.26782 2.91947 2.46274 3.61611L3.15262 6.03857L0.705352 6.66317C0.00269399 6.83118 -0.246486 7.7322 0.288749 8.23888L2.08504 9.99688L0.288749 11.7548C-0.246721 12.2618 0.0029675 13.1626 0.705313 13.3306L3.15258 13.9552L2.4627 16.3777C2.26774 17.0745 2.92477 17.7317 3.62133 17.5367L6.04298 16.8466L6.66736 19.2946C6.84076 20.0202 7.74923 20.2328 8.24256 19.7114L10 17.9145L11.7574 19.7114C12.2457 20.2382 13.1632 20.0038 13.3326 19.2946L13.957 16.8466L16.3786 17.5367C17.0753 17.7318 17.7322 17.0743 17.5373 16.3777L16.8474 13.9552L19.2946 13.3306C19.9973 13.1625 20.2464 12.2616 19.7112 11.7548L17.915 9.99688Z" fill="#FFC107"/>
<path d="M14.5565 5.51086C14.3159 5.18062 13.955 5.18062 13.7144 5.51086L9.20314 11.7028L7.33847 9.14347C7.09787 8.81324 6.73697 8.81324 6.49637 9.14347C6.25577 9.47371 6.25577 9.96907 6.49637 10.2993L8.78208 13.4366C8.90238 13.6017 9.02268 13.6842 9.20314 13.6842C9.38359 13.6842 9.50389 13.6017 9.62419 13.4366L14.5565 6.66669C14.7971 6.33646 14.7971 5.8411 14.5565 5.51086Z" fill="#008AE5"/>
</svg>
