<svg xmlns="http://www.w3.org/2000/svg" width="38" height="38" viewBox="0 0 38 38">
  <g id="Flag_Saudi_Arabia_" data-name="Flag Saudi Arabia " transform="translate(-2.5 -2.5)">
    <path id="Path_83" data-name="Path 83" d="M21.5,40.5h0a19.058,19.058,0,0,1-19-19h0a19.058,19.058,0,0,1,19-19h0a19.058,19.058,0,0,1,19,19h0A19.058,19.058,0,0,1,21.5,40.5Z" transform="translate(0 0)" fill="#006c35"/>
    <g id="Group_21" data-name="Group 21" transform="translate(11.31 14.516)">
      <path id="Path_84" data-name="Path 84" d="M125.493,168.521h-.037a.533.533,0,0,1-.48-.362,1.1,1.1,0,0,1-.177-.457.041.041,0,0,1-.022.037l-.022.037a.7.7,0,0,1-.052.258,1.622,1.622,0,0,1-.125.288.606.606,0,0,1-.2.229.729.729,0,0,1-1.011-.118,1.063,1.063,0,0,1-.229-.472,2.209,2.209,0,0,1-.03-.3v-.022a.73.73,0,0,1,.022-.14,1.793,1.793,0,0,0,.03-.221c.007-.081.007-.155.007-.221a.453.453,0,0,1,.022-.118,1.147,1.147,0,0,0,.037-.17.8.8,0,0,0,.022-.192.041.041,0,0,1,.022-.037v-.037h-.03c-.007,0-.015.007-.03.022l-.059.059v.037a.147.147,0,0,1-.022.059.649.649,0,0,0-.089.177.66.66,0,0,0-.052.2.067.067,0,0,0-.022.037c-.015.1-.03.192-.059.31a2.825,2.825,0,0,0-.059.31,1.61,1.61,0,0,1-.052.369c-.03.155-.066.273-.089.369a.533.533,0,0,1-.14.155.27.27,0,0,1-.221.059.408.408,0,0,1-.236-.2,1.843,1.843,0,0,1-.177-.6,3.313,3.313,0,0,1-.037-.494v-.022c0-.081,0-.155.007-.236s.007-.155.007-.221c0-.03.007-.037.022-.037v-.037l.037-.1v.2c0,.081,0,.17.007.28a1.934,1.934,0,0,0,.03.258,2.167,2.167,0,0,0,.066.354.513.513,0,0,0,.111.221.181.181,0,0,0,.177.118.185.185,0,0,0,.177-.1.8.8,0,0,0,.125-.325,3.286,3.286,0,0,1,.111-.428l.037-.155c.015-.081.044-.207.1-.384a2.037,2.037,0,0,1,.221-.5c.1-.155.184-.243.28-.258h.044a.067.067,0,0,1,.022.037l-.059.516a3.455,3.455,0,0,1-.03.487,2.528,2.528,0,0,0-.03.288.63.63,0,0,0,0,.236c.015.066.03.155.059.258a.78.78,0,0,0,.177.221.31.31,0,0,0,.155.081.646.646,0,0,0,.472-.022.993.993,0,0,0,.28-.258.86.86,0,0,0,.125-.207.534.534,0,0,0,.052-.192,1.6,1.6,0,0,0-.03-.221c-.022-.118-.037-.251-.059-.406s-.044-.288-.066-.406c-.03-.17-.044-.288-.059-.354v-.059c.037-.148.081-.28.118-.4a.067.067,0,0,1,.037-.022.041.041,0,0,1,.037.022.467.467,0,0,1,.081.14,1.24,1.24,0,0,1,.059.177,1.87,1.87,0,0,0,.03.258c.022.133.037.28.052.435s.03.325.052.457a2,2,0,0,1,.03.236,1.151,1.151,0,0,0,.111.3,1.3,1.3,0,0,0,.251.339.116.116,0,0,0,.059.037v-.059c-.066-.406-.118-.745-.148-1.011s-.059-.421-.066-.472l-.118-.413a.08.08,0,0,1,0-.081l.14-.435h.022l.435.974v.155h-.022l-.14-.1q0-.022-.022,0,.022.232.155,1.151a1.924,1.924,0,0,0,.037.354.545.545,0,0,0,.14-.022.768.768,0,0,0,.435-.258v-.022h.022a.119.119,0,0,0,.03-.052.144.144,0,0,0,.007-.052.02.02,0,0,0-.022-.022v-.022a.116.116,0,0,1-.037-.059c-.03-.066-.066-.155-.111-.258s-.089-.221-.125-.339c-.066-.2-.125-.406-.177-.612a4.278,4.278,0,0,1-.1-.435l-.037-.037.081-.413v-.03c0-.007.007-.007.022-.007a.041.041,0,0,1,.037.022l.376.635v.155l-.155-.118-.037.037h.022v.022a.414.414,0,0,1,.037.14c.037.1.089.214.14.354s.1.28.148.406a2.714,2.714,0,0,1,.089.288v.037l.022.037v.17a.525.525,0,0,1-.022.17.562.562,0,0,1-.089.258,2.014,2.014,0,0,1-.221.31.493.493,0,0,1-.288.17.511.511,0,0,1-.118.022c.037.347.089.671.14.989a.168.168,0,0,0,.022.081,3.414,3.414,0,0,0,.317-.177,2.463,2.463,0,0,0,.354-.177h.118a.066.066,0,0,1,.059.037.147.147,0,0,1,.022.059,3.667,3.667,0,0,0,.037.457q.155.255.354.2c-.052-.384-.118-.8-.2-1.269-.1-.671-.17-1.277-.236-1.8-.066-.472-.1-.73-.1-.775l-.1-.177.118-.435a.055.055,0,0,1,.007-.037c.007-.015.015-.022.03-.022a.066.066,0,0,1,.059.037l.4.974v.155l-.177-.2h-.022a.067.067,0,0,0-.022.037c.015.148.052.45.118.922s.14.989.221,1.557c.066.332.111.635.14.915a.6.6,0,0,0,.2-.221,1.545,1.545,0,0,0,.258-.517.041.041,0,0,0,.037-.022.041.041,0,0,1,.037.022.819.819,0,0,0,.17.568.3.3,0,0,0,.3.089.392.392,0,0,0,.229-.177.775.775,0,0,0-.052-.17.228.228,0,0,0-.066-.089l-.022-.022v-.022l.2-.472.022.022a.147.147,0,0,0,.022.059.5.5,0,0,1,.081.177,1.166,1.166,0,0,1,.037.339,1.221,1.221,0,0,1-.435.834.766.766,0,0,0-.118.007.741.741,0,0,1-.177-.007.469.469,0,0,1-.192-.1.431.431,0,0,1-.111-.28.283.283,0,0,0-.059.081,1.189,1.189,0,0,1-.2.339.127.127,0,0,1-.081.081.334.334,0,0,0,.022.118c.052.45.089.723.1.834v.037a.041.041,0,0,0,.022.037,1.873,1.873,0,0,0,.007.192c.007.074.007.148.007.229v.177a2.2,2.2,0,0,1-.059.266c-.03.1-.044.184-.059.251a.055.055,0,0,1-.059.037c-.015,0-.022-.007-.03-.022a.08.08,0,0,1-.007-.037v-.443a2.974,2.974,0,0,0-.037-.5c-.015-.1-.059-.421-.14-.989v-.037h-.118a.382.382,0,0,1-.339-.118.85.85,0,0,1-.17-.31,2.285,2.285,0,0,1-.066-.266.067.067,0,0,0-.037-.022c-.015-.015-.03-.015-.037,0q-.177.1-.376.2c-.052.03-.1.052-.155.081.052.288.089.494.1.612A4.408,4.408,0,0,1,126,171.82a3.1,3.1,0,0,1-.4.7,5.158,5.158,0,0,1-.435.465,3.081,3.081,0,0,1-1.048.612,1.475,1.475,0,0,1-.812.066,1.228,1.228,0,0,1-.753-.406,1.952,1.952,0,0,1-.354-.974,4.754,4.754,0,0,1,.258-1.786l.1-.081v.022h-.022a1.744,1.744,0,0,1-.037.258c-.037.184-.074.413-.111.671a3.019,3.019,0,0,0,.007.775,1.069,1.069,0,0,0,.229.531.969.969,0,0,0,.376.28,2.556,2.556,0,0,0,.376.111,1.332,1.332,0,0,0,.229.03,5.106,5.106,0,0,0,.5-.118,2.993,2.993,0,0,0,.834-.413,4.008,4.008,0,0,0,.959-1.033q-.077-.553-.177-1.306a.268.268,0,0,1-.081.022l-.022.022h-.022V171a2.314,2.314,0,0,1-1.387,1.542,1.345,1.345,0,0,1-.627.17.853.853,0,0,1-.605-.207,1.133,1.133,0,0,1-.413-.79c0-.236.015-.509.037-.812a3.97,3.97,0,0,1,.1-.4.64.64,0,0,0,.022-.1v-.059l.14-.1v.022h-.022a.559.559,0,0,1-.037.14v.022a3.36,3.36,0,0,0-.089.457,1.839,1.839,0,0,0,.007.494.991.991,0,0,0,.3.524.671.671,0,0,0,.605.251,1.373,1.373,0,0,0,.31-.037,2.306,2.306,0,0,0,.627-.317,3.149,3.149,0,0,0,.819-.834.318.318,0,0,0,.059-.236.389.389,0,0,0-.03-.17c-.022-.044-.059-.111-.111-.192v-.022a2.028,2.028,0,0,1-.28.022,1.948,1.948,0,0,1-.435-.007.329.329,0,0,1-.221-.192.575.575,0,0,1-.037-.3,1.566,1.566,0,0,1,.052-.376,1.382,1.382,0,0,1,.14-.384.3.3,0,0,1,.288-.17.506.506,0,0,1,.384.155,1.18,1.18,0,0,1,.229.347.88.88,0,0,1,.081.266.066.066,0,0,0,.037.059.14.14,0,0,0,.1-.037c-.052-.406-.081-.612-.081-.612S125.53,168.905,125.493,168.521Zm-3.379-3.062a.416.416,0,0,1,.03-.089c.015-.03.044-.03.1-.022a.953.953,0,0,1,.339.2.32.32,0,0,1,.1.354.158.158,0,0,1-.1.037h-.1a.144.144,0,0,0-.111,0,.234.234,0,0,0-.089.059.7.7,0,0,1-.155.177l-.14.14c.03.03.052.044.066.059a.119.119,0,0,0,.066.022,1.008,1.008,0,0,0,.849-.4.842.842,0,0,1-.384.443,1.021,1.021,0,0,1-.568.125.09.09,0,0,1-.1-.081.258.258,0,0,1,.022-.177.453.453,0,0,1,.2-.258,1.177,1.177,0,0,0,.118-.14c-.066.03-.111.022-.14-.007a.168.168,0,0,1-.03-.14,1.159,1.159,0,0,1,.03-.17v-.022l-.022-.022C122.107,165.526,122.107,165.489,122.114,165.459Zm.885,3.224a.3.3,0,0,1,.236-.207.393.393,0,0,1,.14.266,1.2,1.2,0,0,1,0,.325.371.371,0,0,1,.148.155.286.286,0,0,1,.007.221,1,1,0,0,1-.177-.1.147.147,0,0,1-.059-.022,1.72,1.72,0,0,1-.354.524,3.26,3.26,0,0,1-.494.384,1.139,1.139,0,0,1-.177.14.282.282,0,0,0-.081.059.319.319,0,0,1-.2.1q.277-.277.576-.531a4.961,4.961,0,0,0,.671-.694.282.282,0,0,1-.081-.059c-.052-.03-.1-.059-.14-.089a.158.158,0,0,1-.059-.125A.707.707,0,0,1,123,168.684Zm-.834.472a.266.266,0,0,1,.066-.066.31.31,0,0,1,.111.007h.022a.859.859,0,0,1,.192.03.6.6,0,0,1,.229.111.071.071,0,0,1,0,.1,1.11,1.11,0,0,1-.339.369.644.644,0,0,1-.236.111h-.037L122,169.8v-.022l.022-.022c.081-.03.162-.059.251-.1a.731.731,0,0,0,.192-.111c.037-.03.03-.059-.022-.066a.38.38,0,0,0-.155-.037.4.4,0,0,0-.14.037c-.015.015-.03.015-.037.007s-.022-.022-.022-.052A.282.282,0,0,1,122.166,169.156Zm.059-3.549c-.015.03-.03.052-.037.066s-.007.037.022.052a.4.4,0,0,0,.14.022h.022c-.015-.1-.052-.155-.118-.177A.038.038,0,0,0,122.225,165.607Zm.376.14a1.84,1.84,0,0,0-.177-.118.185.185,0,0,1-.022.1A.916.916,0,0,0,122.6,165.747Zm1.5,4.545a.22.22,0,0,1,.089.125.756.756,0,0,1-.081.258h-.022a.309.309,0,0,0-.059-.089.207.207,0,0,0-.089-.059.085.085,0,0,0-.089.03,1.382,1.382,0,0,0-.155.6c-.03.17-.059.332-.1.472a1.653,1.653,0,0,1-.14-.28.866.866,0,0,0-.2-.413.041.041,0,0,0-.037.022h-.037a.47.47,0,0,0-.14-.118l-.1-.037v-.17a.2.2,0,0,1,.03-.118.1.1,0,0,1,.111-.03.46.46,0,0,1,.266.2.937.937,0,0,1,.125.3c.037.081.081.155.118.221.015-.081.03-.155.037-.236.03-.155.059-.31.1-.457l.089-.155a.18.18,0,0,1,.125-.1A.172.172,0,0,1,124.1,170.292Zm-.981-1.35c.037.022.081.044.118.066s.044.03.059.037v-.059a.43.43,0,0,0-.022-.14.17.17,0,0,0-.081-.1.142.142,0,0,0-.089.029.337.337,0,0,0-.089.089A.207.207,0,0,0,123.118,168.942Zm15.739,10.3a.287.287,0,0,1-.111-.17h-.73a.971.971,0,0,1-.221.059.281.281,0,0,1-.3-.317.851.851,0,0,1,.2-.531H124.763c-.922,0-1.468-.243-1.623-.73h.081v-.022H137.58c.133-.03.221-.133.28-.317-.148,0-.221-.081-.236-.236.015-.155.125-.251.339-.28a.253.253,0,0,1,.2.089.394.394,0,0,1,.081.266.955.955,0,0,1-.14.472h2.162a.812.812,0,0,1,.605.229.689.689,0,0,1,.229.5.991.991,0,0,1-.177.531.843.843,0,0,1-.694.354.126.126,0,0,1-.118-.081h-.73a.3.3,0,0,1-.1.17.33.33,0,0,1-.221.066A.207.207,0,0,1,138.856,179.243ZM123.848,166.02v-.376a.02.02,0,0,1,.022-.022,1.257,1.257,0,0,1,.384.76,1.2,1.2,0,0,1-.192.8h-.015a2.1,2.1,0,0,0,.03-.7.548.548,0,0,0-.207-.406C123.855,166.072,123.848,166.05,123.848,166.02Zm.981,3.446a.154.154,0,0,0-.177,0,.49.49,0,0,0-.111.155c-.03.066-.044.118-.059.155l.635.022A1.155,1.155,0,0,0,124.829,169.466Zm.9,4.066c.03,0,.037.007.037.022a1.125,1.125,0,0,1-.111.3.184.184,0,0,1-.207.1c-.133-.037-.17-.184-.118-.428a1.559,1.559,0,0,1,.494-.76c0-.015,0-.022.007-.022a.027.027,0,0,1,.022.007c.007.007,0,.015-.007.03a2.381,2.381,0,0,0-.31.568c-.03.125-.03.2.022.221A.186.186,0,0,0,125.73,173.531Zm2.974-.834a.479.479,0,0,0,.1.317c.066.066.207.081.413.037a1.694,1.694,0,0,0,.576-.347,8.381,8.381,0,0,0,.642-.576c.192-.192.28-.332.266-.428a.752.752,0,0,1-.081-.236c-.052-.236-.125-.509-.207-.819a3.58,3.58,0,0,0-.288-.745v-.694a.849.849,0,0,1,.251.339,5.252,5.252,0,0,1,.229.517,3.33,3.33,0,0,0,.081.384c.037.162.081.339.125.524a4.371,4.371,0,0,1,.089.457.53.53,0,0,1,.037.177v.022l.037.059.022-.059.037-.28a1.769,1.769,0,0,1,.155-.28c.066-.1.125-.177.177-.258a2.525,2.525,0,0,1,.31-.3,5.383,5.383,0,0,1,.524-.4l-.1-.2v-.28a.243.243,0,0,1,.059-.177.445.445,0,0,1,.339-.155.8.8,0,0,1,.4.1,1.858,1.858,0,0,1,.258.221.176.176,0,0,1,.037.2.739.739,0,0,1-.081.155.158.158,0,0,0-.037.1.02.02,0,0,1-.022.022h-.022v.022c-.03.015-.066.03-.125.059s-.118.052-.177.081a.882.882,0,0,0-.148.081c-.03.015-.044.03-.059.037H132.5a.208.208,0,0,0,.007.059.153.153,0,0,1-.007.081.55.55,0,0,1-.052.089.279.279,0,0,1-.111.089.215.215,0,0,0,.007-.118.3.3,0,0,0-.03-.1.067.067,0,0,1-.022-.037,4.8,4.8,0,0,0-.472.325,2.233,2.233,0,0,0-.435.465v.022c0,.015.007.022.022.03a.08.08,0,0,0,.037.007c.834,0,1.424-.007,1.786-.03s.568-.037.635-.052c.03,0,.037,0,.037.007v.03a.459.459,0,0,0-.089.125.838.838,0,0,1-.111.17.28.28,0,0,0-.059.118,2.414,2.414,0,0,0-.694.17,4.1,4.1,0,0,0-.723.347,2.558,2.558,0,0,0-.428.3.584.584,0,0,0,.221.288,1.558,1.558,0,0,0,.376.229v.472a1.524,1.524,0,0,1-.8-.229,2.463,2.463,0,0,1-.465-.384.784.784,0,0,1-.17-.266c-.044-.111-.089-.221-.118-.317s-.066-.192-.089-.266a.073.073,0,0,0-.022-.059v-.044a1.334,1.334,0,0,1-.03.229,1.056,1.056,0,0,1-.17.384,4.584,4.584,0,0,1-.406.472,2.714,2.714,0,0,1-.568.457c-.413.214-.679.221-.812.037a.911.911,0,0,1-.2-.694,3.722,3.722,0,0,1-.93.6,10.371,10.371,0,0,1-1.505.14h-.059l.037-.081h.044c.037-.015.1-.03.2-.059v-.022c.133-.052.3-.118.5-.192s.4-.155.583-.236a4.372,4.372,0,0,0,.435-.229,7,7,0,0,0,.849-.6c.037-.081.074-.155.1-.221s.03-.14.037-.177h.022v-.022l.037.081c-.015.03-.03.089-.059.177a.107.107,0,0,0-.022.081.473.473,0,0,1,.14-.1,6.026,6.026,0,0,0,.893-.775.775.775,0,0,1-.207-.3c-.059-.133-.125-.273-.192-.428s-.118-.28-.155-.384a.522.522,0,0,1-.037-.14v-.044l-.059-.037.059-.531h.022l.612.671.022.155-.258-.155v.162l.022.037c.015.037.037.1.066.155l.089.2c.03.066.044.118.059.155a.964.964,0,0,1,.059.317,1.245,1.245,0,0,1-.022.258v.059a1.453,1.453,0,0,1-.347.576,5.162,5.162,0,0,1-.583.516q-.1.1-.221.2Zm-1.941-.376a.067.067,0,0,1,.022.037.78.78,0,0,1-.148.354c-.074.1-.14.133-.207.118q-.221-.077-.155-.531a1.536,1.536,0,0,1,.576-.915h.03a.027.027,0,0,1,.022.007c.007.007,0,.007-.007.007a2.752,2.752,0,0,0-.339.642c-.037.155-.03.251.022.3a.127.127,0,0,0,.177-.007C126.74,172.314,126.748,172.307,126.763,172.321Zm1.682-6.914a.115.115,0,0,1,.059.059c.015.03.03.044.037.059a.436.436,0,0,1,.125.236.282.282,0,0,1-.066.258.336.336,0,0,1-.2-.059,1.374,1.374,0,0,1-.635.472,1.02,1.02,0,0,0-.2.059.706.706,0,0,1-.28.1c.1-.052.192-.1.3-.155a3.4,3.4,0,0,0,.531-.339.528.528,0,0,0,.2-.177l-.022-.022a.2.2,0,0,1-.1-.037.174.174,0,0,1,.022-.148c.03-.044.052-.1.081-.148a.856.856,0,0,0,.022-.118l.022-.037A.125.125,0,0,1,128.445,165.408Zm3.409.657v.155l-.177-.14-.022.059v.022c.015.03.03.066.059.118.037.1.081.229.125.369s.1.273.14.4a2.713,2.713,0,0,1,.089.288v.1a.5.5,0,0,1,.022.17.525.525,0,0,1-.022.17.772.772,0,0,1-.081.251,1.464,1.464,0,0,1-.207.317.5.5,0,0,1-.31.17.872.872,0,0,1-.384.022.938.938,0,0,1-.251-.1.788.788,0,0,1-.236-.266,1.038,1.038,0,0,1-.177-.443v.074a2.232,2.232,0,0,1-.066.258,1.622,1.622,0,0,1-.125.288.551.551,0,0,1-.221.229.729.729,0,0,1-1.011-.118,1.342,1.342,0,0,1-.221-.472,1.046,1.046,0,0,1-.022-.317v-.022a1.006,1.006,0,0,1,.007-.118q.011-.1.022-.221a.9.9,0,0,1,.052-.236v-.1a.827.827,0,0,1,.022-.177.827.827,0,0,0,.022-.177l.022-.059c0-.015,0-.022-.007-.022h-.022q-.011,0-.022.022a.073.073,0,0,1-.052.037v.044a.073.073,0,0,0-.022.059.667.667,0,0,0-.1.192,1.371,1.371,0,0,0-.059.192v.059a1.383,1.383,0,0,0-.066.288c-.022.111-.037.214-.052.31s-.03.236-.059.384a2.18,2.18,0,0,1-.1.369.438.438,0,0,1-.14.148.3.3,0,0,1-.221.052.352.352,0,0,1-.221-.177,2.346,2.346,0,0,1-.192-.6,3.63,3.63,0,0,1-.052-.494v-.037c0-.081,0-.155.007-.236a1.794,1.794,0,0,1,.03-.221v-.074l.059-.081h.022v.738a1.135,1.135,0,0,0,.089.347,1.7,1.7,0,0,1,.089.229.226.226,0,0,0,.192.111.21.21,0,0,0,.207-.111,2.454,2.454,0,0,0,.111-.31,2.612,2.612,0,0,0,.089-.443.276.276,0,0,1,.059-.14,3.209,3.209,0,0,1,.111-.384,4.435,4.435,0,0,1,.207-.516c.081-.162.17-.251.28-.251h.059v.022c0,.015,0,.066-.007.17a3.1,3.1,0,0,1-.052.369c-.015.17-.03.332-.052.487a2.533,2.533,0,0,0-.03.288,2.217,2.217,0,0,0,.007.236,1.207,1.207,0,0,0,.066.258.4.4,0,0,0,.17.207.955.955,0,0,0,.17.089.867.867,0,0,0,.472-.022.914.914,0,0,0,.28-.28.438.438,0,0,0,.111-.2c.022-.081.037-.14.052-.177a.562.562,0,0,0,0-.229q-.022-.166-.066-.4a3.38,3.38,0,0,1-.066-.428c-.03-.155-.044-.273-.059-.339a.168.168,0,0,1,.022-.081,1.171,1.171,0,0,1,.118-.4c0-.015.015-.022.037-.022v.022a.985.985,0,0,1,.081.155c.03.066.044.118.059.155a1.427,1.427,0,0,1,.037.28c.015.133.03.28.059.435s.03.325.037.457a1.714,1.714,0,0,0,.037.236,1.188,1.188,0,0,0,.1.288,1.17,1.17,0,0,0,.236.325.632.632,0,0,0,.5.081.678.678,0,0,0,.443-.236v-.022a.144.144,0,0,1,.007-.052.2.2,0,0,0,.007-.066.02.02,0,0,0-.022-.022.168.168,0,0,0-.022-.081,1.824,1.824,0,0,1-.111-.251c-.044-.111-.1-.229-.148-.347a5.753,5.753,0,0,1-.177-.6,2.34,2.34,0,0,1-.081-.435l-.059-.037.081-.413c0-.03,0-.037.007-.037h.066Zm-3.291,5.224c.03.015.037.03.037.037a1.255,1.255,0,0,1-.125.354c-.059.1-.125.155-.207.14-.155-.066-.221-.251-.177-.553a1.515,1.515,0,0,1,.6-.915c.015-.015.022-.015.022-.007a.027.027,0,0,0,.007.022c.007.007,0,.007-.007.007a2.133,2.133,0,0,0-.325.642c-.03.155-.022.251.03.31S128.511,171.37,128.563,171.288Zm-.266-5.556a.2.2,0,0,0,.066.007c.03.015.037.03.037.037,0-.03.007-.037.022-.037v-.1a.158.158,0,0,0-.155.059A.027.027,0,0,0,128.3,165.732Zm.184-.007a.119.119,0,0,1-.022.081.041.041,0,0,1,.037.022c.015.015.03.022.037.03a.127.127,0,0,0,.059.007.357.357,0,0,0-.118-.177A.055.055,0,0,1,128.482,165.725Zm1.188,1.387h-.015a2.878,2.878,0,0,0,.022-.7.492.492,0,0,0-.221-.406.073.073,0,0,1-.022-.059v-.376q.022-.022.022,0a1,1,0,0,1,.384.73A1.47,1.47,0,0,1,129.67,167.112Zm1.055,6.383c.015,0,.022,0,.022.007v.03a.834.834,0,0,1-.089.28.183.183,0,0,1-.207.1c-.133-.037-.17-.184-.118-.428a1.559,1.559,0,0,1,.494-.76c.03,0,.037.007.037.022a1.9,1.9,0,0,0-.325.568c-.03.125-.03.2.022.229A.172.172,0,0,0,130.725,173.495Zm.472-7.511c.015.081.03.155.037.229a.308.308,0,0,1-.059.229.122.122,0,0,1-.1.037.13.13,0,0,1-.066-.059.4.4,0,0,1-.052-.1.208.208,0,0,1-.052.155.14.14,0,0,1-.111.059.165.165,0,0,1-.118-.081.067.067,0,0,1-.022-.037V166.3a.24.24,0,0,0-.022-.177c0-.015,0-.022.007-.03s.007-.015.007-.029v-.022l.037-.037a.041.041,0,0,1,.022-.037.138.138,0,0,1,.022.1v.14a.641.641,0,0,0-.022.1c.015.037.037.066.066.066a.1.1,0,0,0,.089-.022.078.078,0,0,0,.037-.066.177.177,0,0,0-.022-.155v-.111a.153.153,0,0,1,.037-.089.176.176,0,0,1,.052.1.69.69,0,0,0,.03.118v.037a.227.227,0,0,0,.066.118.055.055,0,0,0,.089,0,.432.432,0,0,0-.037-.2.168.168,0,0,1-.022-.081.245.245,0,0,1,.059-.118A.982.982,0,0,1,131.2,165.983Zm.3,3.667a.961.961,0,0,1,.081.258.25.25,0,0,1-.1.236.143.143,0,0,1-.118.059l-.081-.081a.26.26,0,0,1-.059-.1.226.226,0,0,1-.052.148.181.181,0,0,1-.125.081.152.152,0,0,1-.14-.066.073.073,0,0,0-.022-.059v-.14a.358.358,0,0,0,0-.177v-.081l.022-.022v-.059c.015,0,.03-.015.037-.037a.152.152,0,0,1,.037.118v.155c-.03.052-.03.089-.022.1q.022.077.066.089a.117.117,0,0,0,.1-.022.159.159,0,0,0,.066-.089.431.431,0,0,0-.022-.155.785.785,0,0,1-.022-.148.126.126,0,0,1,.059-.089.194.194,0,0,1,.052.111.76.76,0,0,1,.007.125.147.147,0,0,0,.022.059.209.209,0,0,0,.081.125.083.083,0,0,0,.118-.007.492.492,0,0,0-.059-.2.254.254,0,0,1-.037-.118c0-.029.03-.066.081-.118A.345.345,0,0,1,131.492,169.65Zm.856,2.081-1.35.059a.944.944,0,0,0,.118.435,2.078,2.078,0,0,0,.266.4c.1.1.177.148.229.118a1.251,1.251,0,0,1,.111-.443,1.083,1.083,0,0,1,.207-.266,1.64,1.64,0,0,1,.28-.2c.1-.052.155-.089.177-.1h-.037Zm.007-3.741a.264.264,0,0,1,.192-.17.294.294,0,0,1,.111.221c.007.1.007.177.007.258a.186.186,0,0,1,.118.118.448.448,0,0,1,0,.2,1.182,1.182,0,0,0-.14-.081.041.041,0,0,0-.022-.037,1.793,1.793,0,0,1-.317.428,2.858,2.858,0,0,1-.4.31l-.14.118a.117.117,0,0,1-.059.037.3.3,0,0,1-.155.1,5.081,5.081,0,0,1,.457-.435,3.281,3.281,0,0,0,.531-.576.147.147,0,0,1-.059-.022c-.037-.03-.074-.052-.111-.081a.161.161,0,0,1-.052-.118A.663.663,0,0,1,132.356,167.99Zm.288,1.786a1.974,1.974,0,0,0-.2-.052.214.214,0,0,0-.177.037.442.442,0,0,1,.059.118.973.973,0,0,0,.059.14h.022a.116.116,0,0,1,.059-.037c.03-.015.066-.03.125-.059a.828.828,0,0,1,.192-.059A.288.288,0,0,0,132.643,169.776Zm-.177-4.265a.281.281,0,0,1,.081-.081.2.2,0,0,1,.1-.022.825.825,0,0,1,.2.037,1.175,1.175,0,0,1,.236.118v.1a1.111,1.111,0,0,1-.339.369.6.6,0,0,1-.258.111h-.022l-.155-.022c-.015,0-.022,0-.022-.007s.007-.007.022-.007v-.022c.081-.03.155-.059.236-.1a1.616,1.616,0,0,0,.177-.1c.037-.03.037-.052,0-.081a.823.823,0,0,0-.17-.022.551.551,0,0,0-.148.022c-.015.015-.03.015-.037.007s-.022-.015-.022-.03A.394.394,0,0,1,132.466,165.511Zm1.409,3.623-.28-.354c-.148-.184-.243-.31-.3-.376a2.8,2.8,0,0,1-.2-.258c-.1-.133-.192-.273-.3-.428s-.192-.28-.266-.4-.118-.177-.125-.192-.03-.052-.037-.066a.1.1,0,0,1-.022-.052c0-.015-.015-.022-.037-.022H132.3l.037-.576a.041.041,0,0,1,.022-.037h.037l.775.753a.02.02,0,0,1,.022.022v.081l-.28-.037a.041.041,0,0,0-.037.022v.059a1.726,1.726,0,0,1,.236.28c.118.155.251.325.4.494a3.528,3.528,0,0,0,.3.435c-.1-.583-.162-1.085-.221-1.505l-.118-.79-.059-.177.1-.435c.015-.03.03-.037.037-.037a.066.066,0,0,1,.059.037l.4.974v.14l-.177-.177v-.022a.041.041,0,0,0-.037.022c-.015.015-.015.03,0,.037.03.133.074.435.14.915.037.413.1.878.177,1.409l.118.118c.184.236.347.443.494.612a1.211,1.211,0,0,0,.177.221,1.9,1.9,0,0,1,.155.177c.066.081.14.162.221.258a1.157,1.157,0,0,1,.177.258,3.19,3.19,0,0,1,.258.472,2.384,2.384,0,0,1,.022.354v.354a.02.02,0,0,1-.022.022.041.041,0,0,1-.037-.022,1.332,1.332,0,0,0-.1-.4,1.935,1.935,0,0,0-.317-.553,2.275,2.275,0,0,1-.325-.369c-.14-.177-.28-.347-.413-.494a1.918,1.918,0,0,1-.251-.31.115.115,0,0,0-.059-.059c.052.384.1.723.155,1.033.052.465.089.745.1.849v.059a1.742,1.742,0,0,1,.03.207c.007.074.007.148.007.221v.192c-.015.066-.03.155-.059.258s-.044.192-.059.258a.073.073,0,0,1-.059.022c-.015,0-.022,0-.03-.007s-.007-.015-.007-.03v-.443a4.528,4.528,0,0,0-.022-.5c-.03-.1-.081-.435-.155-.989-.066-.45-.1-.671-.1-.671S133.949,169.672,133.876,169.134Zm-.362,3.763a1.762,1.762,0,0,1,.1-.155.192.192,0,0,1,.155-.081.346.346,0,0,1,.1.229.367.367,0,0,1-.059.266.336.336,0,0,1-.148-.037c-.044-.03-.1-.059-.148-.1a.789.789,0,0,1-.266.354c-.111.081-.221.155-.325.221a1.141,1.141,0,0,1-.435.155,1.89,1.89,0,0,1-.2.037,4.442,4.442,0,0,1,.413-.221,2.885,2.885,0,0,0,.694-.472A.4.4,0,0,0,133.514,172.9Zm-1.07-4.693a.37.37,0,0,0,.1.037l.081.037a.148.148,0,0,1-.022-.059.366.366,0,0,1-.029-.1.107.107,0,0,0-.052-.081.123.123,0,0,0-.081.03.239.239,0,0,0-.059.066A.282.282,0,0,0,132.444,168.2Zm1.24,2.317a.027.027,0,0,1,.022.007c.007.007.007.015.007.03a1.24,1.24,0,0,1-.118.288.184.184,0,0,1-.2.111c-.133-.052-.17-.2-.118-.443a1.5,1.5,0,0,1,.494-.745h.03c.007,0,.007,0,.007.007v.03a1.7,1.7,0,0,0-.325.546c-.03.125-.03.2.022.229s.1.015.17-.037C133.676,170.528,133.676,170.521,133.684,170.521Zm.089,2.435c-.015-.052-.037-.089-.066-.1a.094.094,0,0,0-.089,0A.508.508,0,0,0,133.772,172.956Zm3.689-1.9c-.03-.214-.052-.428-.081-.657q-.144-.93-.266-1.9c-.089-.649-.162-1.2-.236-1.631s-.118-.686-.125-.723l-.037-.037.1-.531a.055.055,0,0,1,.059-.037c.015,0,.022.015.022.037l.435,1.011-.022.155-.125-.162H137.1v.022c.03.133.074.48.148,1.04s.162,1.2.266,1.889c.066.531.133,1.011.2,1.446h.155a.634.634,0,0,1,.125.125,1.57,1.57,0,0,1,.192.347c.037.1.074.184.1.236a1.214,1.214,0,0,0,.081.236,1.767,1.767,0,0,0,.1.155.3.3,0,0,0,.118.125.39.39,0,0,0,.221.066,1.188,1.188,0,0,0,.28.007,1.347,1.347,0,0,0,.221-.03.459.459,0,0,0,.2-.177c.052-.081.1-.155.14-.236v-.3a.415.415,0,0,0-.022-.148c-.015-.066-.059-.354-.125-.871s-.155-1.107-.251-1.786c-.03-.184-.044-.369-.059-.553q-.1-.122-.155-.2c-.2-.251-.332-.406-.4-.472-.148-.184-.317-.428-.524-.723s-.362-.531-.465-.7l-.037-.022.037-.494a.041.041,0,0,1,.022-.037h.022a.02.02,0,0,1,.022.022l.775.73.022.022c0,.015,0,.022-.007.029s-.015.007-.03.007h-.28v.037h.022v.022a.508.508,0,0,0,.1.118c.066.1.148.2.236.325s.184.251.28.369a2.468,2.468,0,0,0,.221.258.283.283,0,0,1,.059.081,3.766,3.766,0,0,0-.081-.6l-.1-.79-.059-.022.1-.612h.059l.435,1.048v.155l-.155-.177h-.037v.022c0,.03.015.1.037.236v.059a.107.107,0,0,1,.022.081v.081h.022v.162h.022a6.508,6.508,0,0,0,.1.775c.118.148.236.288.354.413a3.516,3.516,0,0,1,.3.376q.077.077.177.2v-.081c-.1-.649-.177-1.232-.251-1.756s-.125-.826-.148-.922v-.022l-.022-.037c-.015,0-.015-.015,0-.037l.081-.553.022-.022h.022a.02.02,0,0,1,.022.022l.435,1.011v.022c0,.037-.007.066-.03.066a.1.1,0,0,1-.066-.007l-.081-.081h-.022l.376,2.8c.118.148.236.288.354.413a4.011,4.011,0,0,0,.339.4,2.059,2.059,0,0,1,.517.849.743.743,0,0,1,.022.2v.531c-.03,0-.037-.007-.037-.022l-.022-.177v-.022c-.03-.1-.052-.184-.081-.28v-.022a1.308,1.308,0,0,0-.111-.229,2.219,2.219,0,0,0-.207-.266,1.034,1.034,0,0,1-.258-.258c-.1-.133-.221-.273-.339-.413a.394.394,0,0,1-.1-.1l.1.671v.022a.02.02,0,0,0,.022.022.638.638,0,0,0,.007.111.758.758,0,0,1,.007.125v.553a1.684,1.684,0,0,1-.037.354,1.214,1.214,0,0,1-.081.236l-.022.037-.022.022h-.03v-.162a1.93,1.93,0,0,0-.007-.2,2.005,2.005,0,0,1-.007-.207v-.118c-.015-.052-.052-.332-.118-.834-.037-.3-.089-.635-.14-.989l-.118-.118c-.155-.184-.258-.3-.3-.354a3.064,3.064,0,0,1-.354-.413l-.081-.081a.147.147,0,0,0,.022.059q.122.83.2,1.483c.052.435.089.679.1.73a3.078,3.078,0,0,1,.022.413.94.94,0,0,1-.007.148.76.76,0,0,0-.007.125.067.067,0,0,0-.022.037v.037a1.561,1.561,0,0,1-.111.487,1.425,1.425,0,0,1-.288.5.581.581,0,0,1-.28.192.458.458,0,0,1-.221.007h-.037a.932.932,0,0,1-.155-.022.756.756,0,0,1-.258-.111.485.485,0,0,1-.2-.251,2.984,2.984,0,0,1-.17-.347q-.066-.166-.111-.288a.353.353,0,0,1-.037-.118.5.5,0,0,0-.052-.081.971.971,0,0,0-.089-.1H137.8c.066.472.1.76.1.849a3.12,3.12,0,0,1,.022.605,3.443,3.443,0,0,1-.1.642c-.015,0-.022,0-.03.007s-.015.007-.03.007-.022,0-.022-.007v-.31c0-.133,0-.273-.007-.428a1.725,1.725,0,0,0-.052-.384c-.015-.081-.044-.31-.1-.694-.015-.1-.03-.207-.037-.3a.168.168,0,0,0-.081.022.772.772,0,0,0-.236.155,4.323,4.323,0,0,0-.472.93,2.1,2.1,0,0,1-.059.258,3.108,3.108,0,0,1-.28.694c-.03.066-.059.133-.1.2a1.155,1.155,0,0,1-.148.2.255.255,0,0,1-.192.1.719.719,0,0,1-.472-.4,1.9,1.9,0,0,1-.118-.4,1.791,1.791,0,0,1-.081-.3.68.68,0,0,1-.177.1,3.768,3.768,0,0,1-1.188.339l-.022-.022v-.044a3.257,3.257,0,0,1,.428-.229,5.031,5.031,0,0,0,.76-.465.719.719,0,0,1,.155-.14,2.5,2.5,0,0,1,0-.472,2.791,2.791,0,0,1,.037-.317l.081-.059-.022.059c0,.066-.007.17-.022.317a1.792,1.792,0,0,0,0,.4,6.326,6.326,0,0,0,.457-.517,2,2,0,0,0,.192-.406.645.645,0,0,0,.007-.266,1.269,1.269,0,0,0-.022-.251,1.146,1.146,0,0,1-.022-.229,3.335,3.335,0,0,1-.081-.4l-.612-4.257-.059-.037.1-.6a.067.067,0,0,1,.037-.022.02.02,0,0,1,.022.022l.435,1.033v.155l-.155-.155a.02.02,0,0,0-.022-.022c-.015,0-.022,0-.03.007s-.007.015-.007.03l.576,3.925v.3a4.854,4.854,0,0,1,0,.657,2.41,2.41,0,0,1-.3.974c-.081.1-.148.2-.2.28s-.148.14-.236.221c.03.052.052.1.081.155a.836.836,0,0,0,.2.317.476.476,0,0,0,.125.111.175.175,0,0,0,.17.007.409.409,0,0,0,.17-.125.538.538,0,0,0,.089-.17,1.466,1.466,0,0,0,.111-.221c.044-.1.1-.236.148-.4.081-.2.155-.376.221-.546a1.94,1.94,0,0,1,.155-.325,1.476,1.476,0,0,1,.531-.657Zm-3.077-5.541c.015-.037.03-.059.059-.066a.389.389,0,0,1,.1-.007h.022a.825.825,0,0,1,.2.037,1.538,1.538,0,0,1,.221.1.067.067,0,0,1,.022.052v.066a1.218,1.218,0,0,1-.347.354.554.554,0,0,1-.266.1h-.162a.067.067,0,0,1-.022-.037h.022c.081-.037.155-.081.236-.118a1.62,1.62,0,0,0,.177-.1c.037-.03.037-.044,0-.059a.423.423,0,0,0-.177-.037.305.305,0,0,0-.14.037.055.055,0,0,1-.037-.007c-.015-.007-.022-.015-.022-.03A.353.353,0,0,1,134.385,165.511Zm.6,1.6a1.382,1.382,0,0,1,.059.251.346.346,0,0,1-.059.251.223.223,0,0,1-.14.037.1.1,0,0,1-.089-.052.386.386,0,0,1-.052-.111.226.226,0,0,1-.052.148.181.181,0,0,1-.125.081.152.152,0,0,1-.14-.066v-.044a.272.272,0,0,1,0-.155.743.743,0,0,0-.022-.2v-.059l.022-.022v-.037a.066.066,0,0,1,.037-.059.152.152,0,0,1,.037.118.562.562,0,0,1-.022.155.511.511,0,0,0-.022.118.119.119,0,0,0,.081.059.164.164,0,0,0,.118-.007.1.1,0,0,0,.059-.089.646.646,0,0,0-.022-.177.334.334,0,0,1-.022-.118.115.115,0,0,1,.059-.1.251.251,0,0,1,.052.111.6.6,0,0,1,.007.125.073.073,0,0,0,.022.059c0,.066.022.111.059.125a.158.158,0,0,0,.14-.007.492.492,0,0,0-.059-.2.167.167,0,0,1-.037-.111.231.231,0,0,1,.081-.125A.136.136,0,0,1,134.982,167.112Zm.251,1.764c.007,0,.015.015.03.037a2.594,2.594,0,0,1-.125.288.171.171,0,0,1-.192.111c-.148-.052-.192-.2-.14-.443a1.416,1.416,0,0,1,.516-.745c0-.015,0-.022.007-.022s.007,0,.007.007v.03a1.994,1.994,0,0,0-.31.553c-.03.133-.03.207.022.229a.189.189,0,0,0,.17-.03A.016.016,0,0,1,135.233,168.876Zm.8-3.365a.162.162,0,0,1,.081-.066.524.524,0,0,1,.118-.007,1.017,1.017,0,0,1,.192.037,1.334,1.334,0,0,1,.229.1.119.119,0,0,1,.03.052.1.1,0,0,1-.007.066.983.983,0,0,1-.339.354.62.62,0,0,1-.258.1h-.192a.067.067,0,0,1-.022-.037h.022c.081-.037.162-.081.251-.118s.148-.074.192-.1.03-.044-.022-.059a.38.38,0,0,0-.155-.037.4.4,0,0,0-.14.037c-.015,0-.022,0-.03-.007l-.03-.03A.3.3,0,0,1,136.03,165.511Zm.553,2.723v.03a.746.746,0,0,1-.118.347c-.066.1-.14.14-.221.125-.155-.066-.214-.251-.17-.546a1.575,1.575,0,0,1,.605-.9c0-.015,0-.015.007-.007l.022.022c.007.007,0,.007-.007.007a2.753,2.753,0,0,0-.339.642c-.037.155-.037.251.007.31s.111.037.192-.037C136.584,168.219,136.584,168.226,136.584,168.234Zm.3,2.369c.03,0,.037.007.037.022a.978.978,0,0,1-.14.347c-.066.1-.133.148-.2.148-.155-.066-.221-.251-.177-.553a1.515,1.515,0,0,1,.6-.915h.022v.022a2.017,2.017,0,0,0-.325.657.452.452,0,0,0,.007.31C136.746,170.676,136.8,170.661,136.886,170.6Zm.435,2.693c.03.015.037.03.037.037a.978.978,0,0,1-.14.347c-.066.1-.14.14-.221.125-.155-.052-.214-.229-.17-.524a1.663,1.663,0,0,1,.605-.922c0-.015,0-.015.007-.007s.007.015.007.03a2.017,2.017,0,0,0-.325.657c-.03.155-.03.258.022.3S137.255,173.362,137.321,173.3Zm.93-4.656a.02.02,0,0,1,.022.022.979.979,0,0,1-.14.347.281.281,0,0,1-.221.148q-.221-.077-.155-.531a1.585,1.585,0,0,1,.576-.93c.015-.015.022-.015.03-.007a.027.027,0,0,1,.007.022v.03a1.827,1.827,0,0,0-.325.635c-.03.155-.03.258.022.31s.1.037.148-.03C138.222,168.639,138.236,168.639,138.251,168.639Zm2.029,10.2a.193.193,0,0,0,.089-.177.666.666,0,0,0-.022-.111.313.313,0,0,0-.148-.17.613.613,0,0,0-.236-.1c-.074-.015-.391-.022-.959-.022a4.792,4.792,0,0,0-.893.037.617.617,0,0,0-.236.3.247.247,0,0,1,.236.258v.081h.635a.5.5,0,0,1,.118-.192.264.264,0,0,1,.177-.066.3.3,0,0,1,.317.258h.812A.549.549,0,0,1,140.28,178.837Zm-1.749-9.009v-.376c0-.015,0-.022.007-.022h.03a1.118,1.118,0,0,1,.384.76,1.345,1.345,0,0,1-.192.8h-.022a2.1,2.1,0,0,0,.03-.7.516.516,0,0,0-.229-.406A.144.144,0,0,1,138.531,169.827Zm.531,8.936a.226.226,0,0,0-.148.052.145.145,0,0,0-.066.125h.435A.209.209,0,0,0,139.063,178.763Zm.162.354a.115.115,0,0,0,.059-.059h-.435a.212.212,0,0,0,.221.14A.2.2,0,0,0,139.225,179.117Zm1.284-6.279c-.066.015-.111.03-.14.037l-.1.037-.037.022q-.022.022-.2.177l-.037.037h-.037a.245.245,0,0,1,.059-.118.43.43,0,0,1,.1-.14l.037-.022q-.144,0-.155-.022c-.066,0-.1-.022-.118-.059a.543.543,0,0,1,.059-.317.409.409,0,0,1,.3-.221.149.149,0,0,1,.177.1l-.081.177-.059-.037a.147.147,0,0,0-.059-.022H140.1c0,.015-.015.03-.037.037a.1.1,0,0,0-.037.081c.015.037.074.059.177.059l.177-.022h.1l.118-.022Zm1.387-6.264v.155l-.118-.155-.037-.022c-.015.015-.022.022-.03.022h.007l.553,3.94v.3c0,.2-.007.413-.022.657a1.936,1.936,0,0,1-.28.952c-.081.118-.148.221-.2.3a4.2,4.2,0,0,1-.531.435,4.384,4.384,0,0,1-1.188.317.041.041,0,0,1-.037-.022v-.022l.022-.022c.052-.03.192-.1.428-.221a5.309,5.309,0,0,0,.753-.487,3.26,3.26,0,0,0,.7-.723,2.152,2.152,0,0,0,.177-.406.766.766,0,0,0,.037-.251c-.015-.1-.03-.192-.037-.266a2.114,2.114,0,0,1-.037-.229c-.015-.1-.03-.221-.059-.4l-.6-4.257-.081-.037.081-.576c0-.015.015-.03.037-.037h.022c.015,0,.022.015.022.037Zm-1.35-1.085a.269.269,0,0,1,.089-.066.3.3,0,0,1,.089-.007h.022a.761.761,0,0,1,.2.03.555.555,0,0,1,.221.125c.015,0,.022.007.03.03a.1.1,0,0,1-.007.066,1.411,1.411,0,0,1-.347.369.523.523,0,0,1-.251.111h-.037l-.155-.037c-.015,0-.022,0-.022-.007s.007-.007.022-.007h.022c.081-.037.155-.074.236-.111a.631.631,0,0,0,.177-.1c.037-.03.037-.059,0-.066a.53.53,0,0,0-.177-.037.4.4,0,0,0-.14.037.041.041,0,0,1-.037-.022A.314.314,0,0,1,140.546,165.489Zm.421,2.295v-.376c0-.015,0-.022.007-.022H141a1.08,1.08,0,0,1,.4.76,1.515,1.515,0,0,1-.177.8H141.2a2.877,2.877,0,0,0,.022-.7.493.493,0,0,0-.221-.406A.058.058,0,0,1,140.966,167.783Z" transform="translate(-121.9 -165.344)" fill="#fff"/>
    </g>
  </g>
</svg>
