<svg xmlns="http://www.w3.org/2000/svg" width="17.65" height="22.783" viewBox="0 0 17.65 22.783">
  <path id="cursor-hand-click-line" d="M19.628,11.328a8.221,8.221,0,0,0-4.31-2.38A12.311,12.311,0,0,0,13.2,8.562a5.069,5.069,0,1,0-7.139.643,3.745,3.745,0,0,0,1.158.707v1.415l-1.029-.965a2.409,2.409,0,0,0-3.345,0,2.253,2.253,0,0,0-.065,3.216l2.959,3.473a6.912,6.912,0,0,0,.9,2.508,7.566,7.566,0,0,0,1.222,1.608v1.222a.608.608,0,0,0,.643.643h8.747a.692.692,0,0,0,.643-.643V20.719a8.208,8.208,0,0,0,1.865-5.21V11.779c.065-.258,0-.386-.128-.451ZM5.478,5.282A3.723,3.723,0,0,1,9.337,1.551a3.723,3.723,0,0,1,3.731,3.859A3.623,3.623,0,0,1,11.652,8.3V5.089A2.187,2.187,0,0,0,9.465,3.031,2.1,2.1,0,0,0,7.278,5.089V8.434a3.851,3.851,0,0,1-1.8-3.152ZM18.534,15.445a6.627,6.627,0,0,1-1.608,4.566.653.653,0,0,0-.258.451v1.351H9.208v-.9a.79.79,0,0,0-.258-.514,5.053,5.053,0,0,1-1.158-1.415A6.331,6.331,0,0,1,7.021,16.8a.922.922,0,0,0-.128-.386L3.806,12.744a1.065,1.065,0,0,1-.321-.772,1.186,1.186,0,0,1,.321-.772,1.174,1.174,0,0,1,1.544,0l1.865,1.865v1.93l1.222-.643V5.09A.873.873,0,0,1,9.4,4.318a.856.856,0,0,1,.9.772v7.4l1.286.258V9.786c.065-.065.128-.065.193-.128a9.691,9.691,0,0,1,1.351.128v3.28l1.029.193V9.914l.772.193a5.715,5.715,0,0,1,.965.321v3.216l1.029.193V10.878a5.209,5.209,0,0,1,1.544,1.093l.065,3.473Z" transform="translate(-2.132 -0.251)" fill="#809fb8"/>
</svg>
