<svg xmlns="http://www.w3.org/2000/svg" width="18.686" height="13.688" viewBox="0 0 18.686 13.688">
  <path id="sales" d="M56.232,372c-1.119,0-1.97,0-2.673.071a2.985,2.985,0,0,0-1.777.648,2.487,2.487,0,0,0-.707,1.627A3.455,3.455,0,0,0,51,375.422v6.844a3.442,3.442,0,0,0,.077,1.079,2.486,2.486,0,0,0,.708,1.627,2.987,2.987,0,0,0,1.777.647c.7.072,1.552.07,2.67.07h8.222c1.119,0,1.97,0,2.673-.071a2.986,2.986,0,0,0,1.777-.648,2.487,2.487,0,0,0,.707-1.627,3.454,3.454,0,0,0,.076-1.076v-6.844a3.44,3.44,0,0,0-.077-1.079,2.486,2.486,0,0,0-.708-1.627,2.986,2.986,0,0,0-1.777-.647c-.7-.072-1.552-.069-2.67-.069Zm0,1.369h8.222c1.117,0,1.946,0,2.5.061a1.585,1.585,0,0,1,.888.254,1.3,1.3,0,0,1,.279.813,2.413,2.413,0,0,1,.067.925v.684H65.2a.819.819,0,0,0-.164.015,2.725,2.725,0,1,0,0,5.446.806.806,0,0,0,.164.015h2.99v.684a2.419,2.419,0,0,1-.067.924,1.3,1.3,0,0,1-.277.813,1.579,1.579,0,0,1-.888.255c-.557.057-1.386.061-2.5.061H56.232c-.286,0-.5,0-.747-.005v-10.94c.248,0,.462-.005.747-.005Zm-2.242.048v10.854c-.078-.006-.191-.006-.261-.013a1.583,1.583,0,0,1-.888-.254,1.3,1.3,0,0,1-.279-.813,2.41,2.41,0,0,1-.067-.925v-6.844a2.413,2.413,0,0,1,.067-.924,1.3,1.3,0,0,1,.277-.813,1.582,1.582,0,0,1,.888-.255c.07-.007.184-.008.263-.013ZM65.2,377.475h2.99v2.738H65.2a1.374,1.374,0,1,1,0-2.738Zm0,.684a.687.687,0,1,0,.747.684A.718.718,0,0,0,65.2,378.159Z" transform="translate(-51 -372)" fill="#809fb8"/>
</svg>
