<svg xmlns="http://www.w3.org/2000/svg" width="38.298" height="38.298" viewBox="0 0 38.298 38.298">
  <path id="Color" d="M36.7,12.383l-2.754,2.662a1.914,1.914,0,1,1-2.66-2.754l2.754-2.66a1.914,1.914,0,0,1,2.66,2.752M14.714,15a1.915,1.915,0,0,1-2.708.05L9.251,12.385A1.916,1.916,0,0,1,11.913,9.63l2.756,2.66A1.915,1.915,0,0,1,14.714,15m-3.225,7.981a1.914,1.914,0,0,1-1.915,1.915H5.745a1.915,1.915,0,0,1,0-3.83h3.83a1.914,1.914,0,0,1,1.915,1.915m30.638,0a1.913,1.913,0,0,1-1.915,1.915h-3.83a1.915,1.915,0,0,1,0-3.83h3.83a1.913,1.913,0,0,1,1.915,1.915M21.064,9.574V5.744a1.915,1.915,0,0,1,3.83,0v3.83a1.915,1.915,0,1,1-3.83,0m4.789,18.37a1.919,1.919,0,0,0-.959,1.66V38.3h-3.83V29.6a1.919,1.919,0,0,0-.959-1.66,5.745,5.745,0,1,1,5.749,0M22.979,13.4A9.569,9.569,0,0,0,17.234,30.63V38.3a3.834,3.834,0,0,0,3.83,3.83h3.83a3.834,3.834,0,0,0,3.83-3.83V30.63A9.569,9.569,0,0,0,22.979,13.4" transform="translate(-3.83 -3.829)" fill="#34b53a" fill-rule="evenodd"/>
</svg>
