<svg xmlns="http://www.w3.org/2000/svg" width="30" height="31" viewBox="0 0 30 31">
  <path id="profile" d="M26.665,29.45v-3.1a4.834,4.834,0,0,0-5-4.65H8.332a4.834,4.834,0,0,0-5,4.65v3.1A1.612,1.612,0,0,1,1.666,31,1.611,1.611,0,0,1,0,29.45v-3.1C0,22.07,3.73,18.6,8.332,18.6H21.666C26.268,18.6,30,22.07,30,26.35v3.1a1.672,1.672,0,0,1-3.335,0Zm-20-21.7C6.666,3.471,10.4,0,15,0s8.333,3.471,8.333,7.751S19.6,15.5,15,15.5,6.666,12.031,6.666,7.751Zm3.333,0A4.835,4.835,0,0,0,15,12.4a4.834,4.834,0,0,0,5-4.649A4.834,4.834,0,0,0,15,3.1,4.835,4.835,0,0,0,10,7.751Z" fill="#ff3a29"/>
</svg>
