<svg xmlns="http://www.w3.org/2000/svg" width="64" height="41.617" viewBox="0 0 64 41.617">
  <g id="Group_33" data-name="Group 33" transform="translate(-5.131 -23.34)">
    <path id="Form_3" data-name="Form 3" d="M835.812,258.5h7.35A1.641,1.641,0,0,1,844.93,260v.622a1.645,1.645,0,0,1-1.767,1.492h-7.35a1.644,1.644,0,0,1-1.768-1.492V260A1.641,1.641,0,0,1,835.812,258.5Zm-14.7,0h7.35A1.644,1.644,0,0,1,830.226,260v.622a1.647,1.647,0,0,1-1.768,1.492h-7.35a1.644,1.644,0,0,1-1.768-1.492V260A1.641,1.641,0,0,1,821.109,258.5Zm-14.7,0h7.35A1.64,1.64,0,0,1,815.519,260v.622a1.643,1.643,0,0,1-1.764,1.492h-7.35a1.644,1.644,0,0,1-1.768-1.492V260A1.641,1.641,0,0,1,806.405,258.5Zm-14.7,0h7.35A1.641,1.641,0,0,1,800.82,260v.622a1.645,1.645,0,0,1-1.768,1.492H791.7a1.644,1.644,0,0,1-1.768-1.492V260A1.641,1.641,0,0,1,791.7,258.5Zm1.954-23.047h9.665a1.969,1.969,0,0,1,1.769,2.126v4.182a1.971,1.971,0,0,1-1.769,2.126h-9.665a1.968,1.968,0,0,1-1.769-2.126v-4.182A1.967,1.967,0,0,1,793.656,235.457Zm-2.976-6.305c-2.908,0-5.25,2.895-5.25,6.488v28.643c0,3.592,2.341,6.487,5.25,6.487h53.5c2.908,0,5.25-2.894,5.25-6.487V235.64c0-3.594-2.342-6.488-5.25-6.488Z" transform="translate(-780.3 -205.812)" fill="#0090ff"/>
  </g>
</svg>
