<svg id="calendar_today" xmlns="http://www.w3.org/2000/svg" width="16" height="16" viewBox="0 0 16 16">
  <path id="Path_278" data-name="Path 278" d="M0,0H16V16H0Z" fill="none"/>
  <path id="Path_279" data-name="Path 279" d="M14,2.333h-.667V1.667a.667.667,0,1,0-1.333,0v.667H5.333V1.667A.667.667,0,1,0,4,1.667v.667H3.333A1.337,1.337,0,0,0,2,3.667V14.333a1.337,1.337,0,0,0,1.333,1.333H14a1.337,1.337,0,0,0,1.333-1.333V3.667A1.337,1.337,0,0,0,14,2.333Zm-.667,12H4a.669.669,0,0,1-.667-.667v-8H14v8A.669.669,0,0,1,13.333,14.333Z" transform="translate(-0.667 -0.333)" fill="#809fb8"/>
</svg>
