<svg id="attach_money" xmlns="http://www.w3.org/2000/svg" width="44" height="44" viewBox="0 0 44 44">
  <path id="Path_390" data-name="Path 390" d="M0,0H44V44H0Z" fill="none"/>
  <path id="Path_391" data-name="Path 391" d="M17.109,17.127C12.64,16.072,11.2,14.981,11.2,13.282c0-1.949,1.988-3.308,5.316-3.308,3.5,0,4.8,1.52,4.922,3.755h4.351c-.138-3.076-2.2-5.9-6.32-6.813V3H13.565V6.862c-3.819.751-6.891,3-6.891,6.455,0,4.131,3.76,6.187,9.253,7.385,4.922,1.073,5.906,2.647,5.906,4.31,0,1.234-.965,3.2-5.316,3.2-4.056,0-5.65-1.645-5.867-3.755H6.32c.236,3.916,3.465,6.116,7.245,6.849v3.88h5.906V31.343c3.839-.662,6.891-2.682,6.891-6.348C26.362,19.916,21.578,18.182,17.109,17.127Z" transform="translate(4.636 2.906)" fill="#ea9597"/>
</svg>
