<svg xmlns="http://www.w3.org/2000/svg" width="44" height="44" viewBox="0 0 44 44">
  <g id="sports_baseball" transform="translate(-0.381 0)">
    <g id="Group_135" data-name="Group 135" transform="translate(0.381 0)">
      <rect id="Rectangle_7652" data-name="Rectangle 7652" width="44" height="44" fill="none"/>
    </g>
    <g id="Group_136" data-name="Group 136" transform="translate(4.406 4.7)">
      <path id="Path_388" data-name="Path 388" d="M19.3,2A17.3,17.3,0,1,0,36.6,19.3,17.307,17.307,0,0,0,19.3,2ZM8.245,27.57a13.669,13.669,0,0,1,0-16.539,10.337,10.337,0,0,1,0,16.539ZM19.3,33.141A13.777,13.777,0,0,1,10.65,30.1a13.822,13.822,0,0,0,0-21.591,13.81,13.81,0,0,1,17.3,0,13.822,13.822,0,0,0,0,21.591A13.777,13.777,0,0,1,19.3,33.141ZM30.355,27.57a10.337,10.337,0,0,1,0-16.539,13.669,13.669,0,0,1,0,16.539Z" transform="translate(-2 -2)" fill="#ea9597"/>
    </g>
  </g>
</svg>
