<svg xmlns="http://www.w3.org/2000/svg" width="21.754" height="18" viewBox="0 0 21.754 18">
  <path id="Form_10" data-name="Form 10" d="M806.014,745a2.989,2.989,0,0,1-2.966-3V730.034q0-.039,0-.079A2.988,2.988,0,0,1,806.014,727h15.82a2.988,2.988,0,0,1,2.966,2.955c0,.026,0,.052,0,.078V742a2.989,2.989,0,0,1-2.966,3Zm-.989-3a1,1,0,0,0,.989,1h15.82a1,1,0,0,0,.989-1V731.921l-8.332,5.9a.979.979,0,0,1-1.134,0l-8.332-5.9Zm8.9-6.22,8.794-6.226a.994.994,0,0,0-.884-.554h-15.82a.994.994,0,0,0-.884.554Z" transform="translate(-803.047 -727)" fill="#5e6774"/>
</svg>
