<svg xmlns="http://www.w3.org/2000/svg" width="44" height="44" viewBox="0 0 44 44">
  <g id="checkroom" transform="translate(-0.059 0)">
    <rect id="Rectangle_7653" data-name="Rectangle 7653" width="44" height="44" transform="translate(0.059 0)" fill="none"/>
    <path id="Path_389" data-name="Path 389" d="M37.611,29.516,21.987,17.927V16.292A6.263,6.263,0,0,0,21.66,4.164a6.361,6.361,0,0,0-7.849,6.127h3.634a2.725,2.725,0,1,1,2.671,2.7,1.762,1.762,0,0,0-1.762,1.779v3.162L2.729,29.516a1.793,1.793,0,0,0,1.09,3.234h32.7A1.793,1.793,0,0,0,37.611,29.516ZM9.269,29.157l10.9-8.085,10.9,8.085Z" transform="translate(1.495 3.624)" fill="#ea9597"/>
  </g>
</svg>
