<svg xmlns="http://www.w3.org/2000/svg" xmlns:xlink="http://www.w3.org/1999/xlink" width="152.774" height="142.667" viewBox="0 0 152.774 142.667">
  <defs>
    <clipPath id="clip-path">
      <rect id="Rectangle_2" data-name="Rectangle 2" width="46.318" height="65.378" fill="none"/>
    </clipPath>
  </defs>
  <g id="Group_25" data-name="Group 25" transform="translate(-2282 3104.995)">
    <path id="Path_1" data-name="Path 1" d="M94.444,236.345a5.722,5.722,0,0,0,3.064.876,6.693,6.693,0,0,0,3.518-.876,2.959,2.959,0,0,0,1.453-2.73,2.359,2.359,0,0,0-1.523-2.363,21.508,21.508,0,0,0-3.448-1.1l-.35-.07-.35-.07a17.152,17.152,0,0,1-3.869-1.383,3.33,3.33,0,0,1-1.768-3.273,4.354,4.354,0,0,1,1.523-3.273q1.522-1.419,4.814-1.418a11.8,11.8,0,0,1,4.691.858,3.812,3.812,0,0,1,2.206,3.554l-2.486-.035a2.868,2.868,0,0,0-1.382-1.944,5.53,5.53,0,0,0-3.029-.753,4.681,4.681,0,0,0-2.661.579,2.763,2.763,0,0,0-1.05,1.243,3.709,3.709,0,0,0-.105.472,2.859,2.859,0,0,0-.035.438,1.943,1.943,0,0,0,1.3,1.873,17.819,17.819,0,0,0,3.011,1q.35.105.683.175c.221.047.449.105.682.175a16.027,16.027,0,0,1,3.869,1.575,3.7,3.7,0,0,1,1.768,3.5,5.1,5.1,0,0,1-2.275,4.447,8.885,8.885,0,0,1-5.181,1.576,10.1,10.1,0,0,1-1.016-.053q-.526-.052-1.05-.157a7.02,7.02,0,0,1-3.186-1.611,5.423,5.423,0,0,1-1.645-3.955l2.206-.035a3.5,3.5,0,0,0,1.628,2.766" transform="translate(2242.282 -3201.72)" fill="#fff"/>
    <path id="Path_2" data-name="Path 2" d="M117.289,229.509a10.36,10.36,0,0,1,2.153-6.617,7.067,7.067,0,0,1,5.864-2.731,7.537,7.537,0,0,1,5.987,2.626,9.943,9.943,0,0,1,2.276,6.757,10.533,10.533,0,0,1-2.241,6.88,7.079,7.079,0,0,1-5.742,2.748,7.528,7.528,0,0,1-5.9-2.748,10.086,10.086,0,0,1-2.4-6.88Zm2.206,0a10.721,10.721,0,0,0,1.8,5.444,4.949,4.949,0,0,0,4.289,2.328,4.77,4.77,0,0,0,4.2-2.38,9.7,9.7,0,0,0,1.575-5.252v-.105a8.875,8.875,0,0,0-1.575-5.111,4.77,4.77,0,0,0-4.1-2.311h-.385a5.425,5.425,0,0,0-4.254,2.346,8.476,8.476,0,0,0-1.558,5.076Z" transform="translate(2230.589 -3201.501)" fill="#fff"/>
    <rect id="Rectangle_1" data-name="Rectangle 1" width="2.206" height="25.348" transform="translate(2366.469 -2988.237)" fill="#fff"/>
    <path id="Path_3" data-name="Path 3" d="M173.307,227.173q0,1.05.035,2.538t.245,3.519H171.1a2.572,2.572,0,0,1-.07-.263q-.035-.158-.07-.332a16.433,16.433,0,0,1-.14-1.856,5.157,5.157,0,0,1-2.083,2.118,5.992,5.992,0,0,1-3.133.893h-.385a5.768,5.768,0,0,1-5.27-2.5,12.37,12.37,0,0,1-1.978-5.585,8.027,8.027,0,0,1-.088-.91q-.018-.455-.017-.911a9.482,9.482,0,0,1,1.348-5.531,7.855,7.855,0,0,1,2.994-2.662,6.653,6.653,0,0,1,1.505-.49,7.235,7.235,0,0,1,1.331-.14,7.815,7.815,0,0,1,3.833.771,4.633,4.633,0,0,1,1.943,2v-9.943h2.486Zm-12.954-3.327a10.767,10.767,0,0,0,1.278,5.759,4.369,4.369,0,0,0,3.974,2.013,4.444,4.444,0,0,0,4.2-2.328,10.949,10.949,0,0,0,1.3-5.41,7.078,7.078,0,0,0-1.751-5.007,5.351,5.351,0,0,0-4.026-1.889,4.334,4.334,0,0,0-3.554,1.855,8.467,8.467,0,0,0-1.348,3.642q-.035.35-.052.7t-.018.7Z" transform="translate(2212.802 -3196.118)" fill="#fff"/>
    <path id="Path_4" data-name="Path 4" d="M193.234,210.612h-2.766v-2.731h2.766Zm-.28,22.617h-2.206V215.584h2.206Z" transform="translate(2198.512 -3196.118)" fill="#fff"/>
    <path id="Path_5" data-name="Path 5" d="M212.459,232.555h2.486a8.011,8.011,0,0,1-2.836,4.937,8.321,8.321,0,0,1-4.9,1.4q-4.271,0-6.092-2.486a10.841,10.841,0,0,1-2.1-5.5q-.035-.35-.052-.682c-.012-.222-.017-.45-.017-.684a9.511,9.511,0,0,1,2.451-6.757,7.445,7.445,0,0,1,5.567-2.625q4.131,0,6,2.7a11.079,11.079,0,0,1,2.013,5.952v.875a.657.657,0,0,0-.035.211v.21l-13.515-.035a7.938,7.938,0,0,0,.088,1.155,10.07,10.07,0,0,0,.263,1.226,7.808,7.808,0,0,0,1.681,3.134A4.21,4.21,0,0,0,206.822,237h.385a5.906,5.906,0,0,0,3.064-.91,5.272,5.272,0,0,0,1.558-1.645,5.469,5.469,0,0,0,.42-1,8.563,8.563,0,0,0,.21-.858Zm0-4.5a.278.278,0,0,1,.035-.122v-.245a4.844,4.844,0,0,0-1.3-3.554,5.529,5.529,0,0,0-2.871-1.627,4.8,4.8,0,0,0-.56-.105,4.47,4.47,0,0,0-.561-.035,9.4,9.4,0,0,0-1.19.086,4.37,4.37,0,0,0-1.365.438,5.2,5.2,0,0,0-1.838,1.663,9.272,9.272,0,0,0-1.383,3.623l11.029-.035Z" transform="translate(2194.797 -3201.501)" fill="#fff"/>
    <path id="Path_6" data-name="Path 6" d="M231.047,221.183h2.206q.105.351.158.613c.035.175.063.344.087.508a4.437,4.437,0,0,1,.035.543v.577a3.35,3.35,0,0,1,2.153-2.451,12.749,12.749,0,0,1,3.274-.315h.63v1.891c-.164,0-.321-.006-.473-.017s-.309-.017-.473-.017a5.093,5.093,0,0,0-3.623,1.4,4.774,4.774,0,0,0-1.488,3.641v11.273h-2.206V223.476c0-.245-.012-.5-.035-.753-.024-.233-.053-.473-.088-.718a7.881,7.881,0,0,0-.158-.788Z" transform="translate(2180.725 -3201.717)" fill="#fff"/>
    <path id="Path_7" data-name="Path 7" d="M250.276,236.345a5.72,5.72,0,0,0,3.063.876,6.694,6.694,0,0,0,3.519-.876,2.96,2.96,0,0,0,1.452-2.73,2.359,2.359,0,0,0-1.523-2.363,21.5,21.5,0,0,0-3.449-1.1l-.35-.07-.35-.07a17.132,17.132,0,0,1-3.869-1.383A3.33,3.33,0,0,1,247,225.351a4.356,4.356,0,0,1,1.523-3.273q1.523-1.419,4.814-1.418a11.808,11.808,0,0,1,4.692.858,3.814,3.814,0,0,1,2.206,3.554l-2.486-.035a2.867,2.867,0,0,0-1.383-1.944,5.528,5.528,0,0,0-3.029-.753,4.677,4.677,0,0,0-2.661.579,2.759,2.759,0,0,0-1.05,1.243,3.708,3.708,0,0,0-.105.472,2.862,2.862,0,0,0-.035.438,1.943,1.943,0,0,0,1.3,1.873,17.818,17.818,0,0,0,3.011,1c.233.07.461.129.682.175s.449.105.682.175a16.018,16.018,0,0,1,3.869,1.575,3.7,3.7,0,0,1,1.768,3.5,5.1,5.1,0,0,1-2.275,4.447,8.887,8.887,0,0,1-5.182,1.576,10.111,10.111,0,0,1-1.015-.053q-.525-.052-1.05-.157a7.018,7.018,0,0,1-3.186-1.611,5.424,5.424,0,0,1-1.646-3.955l2.206-.035a3.5,3.5,0,0,0,1.628,2.766" transform="translate(2173.977 -3201.72)" fill="#fff"/>
    <path id="Path_8" data-name="Path 8" d="M18.731,207.071l9.943,25.348H20.691l-1.681-4.692H9.1l-1.646,4.692H0l10.188-25.348Zm-4.657,5.217-3.326,10.223h6.337Z" transform="translate(2282 -3195.763)" fill="#e50015"/>
    <path id="Path_9" data-name="Path 9" d="M70.371,207.071v25.348H63.754a.207.207,0,0,1-.052-.088.366.366,0,0,1-.017-.122.609.609,0,0,1-.053-.157.97.97,0,0,1-.017-.193q-.035-.35-.087-.666a3.576,3.576,0,0,1-.053-.595V230l-.07.21a.9.9,0,0,1-.105.21.643.643,0,0,1-.122.21,2.33,2.33,0,0,0-.158.21,7.087,7.087,0,0,1-.735.7,5.893,5.893,0,0,1-1.016.665q-.56.245-1.155.438a8.6,8.6,0,0,1-1.225.3H58.8a.118.118,0,0,0-.088.035h-.245a.1.1,0,0,0-.07.035h-.56a.1.1,0,0,0-.07-.035H57.7a8.657,8.657,0,0,1-2.731-.648,9.361,9.361,0,0,1-2.451-1.523,6.028,6.028,0,0,1-1.715-2.871,15.935,15.935,0,0,1-.561-4.552,11.98,11.98,0,0,1,.456-3.466,7.558,7.558,0,0,1,1.331-2.591,10.677,10.677,0,0,1,1.873-1.786,6.575,6.575,0,0,1,2.048-1.015,1.434,1.434,0,0,1,.21-.053,1.365,1.365,0,0,0,.21-.052,1.523,1.523,0,0,0,.227-.018,1.238,1.238,0,0,0,.227-.052,1.257,1.257,0,0,0,.21-.017,1.5,1.5,0,0,1,.245-.017.676.676,0,0,1,.211-.035h.49a.308.308,0,0,0,.14.035h.7a8.78,8.78,0,0,1,1.365.245,10.039,10.039,0,0,1,1.331.455,4.2,4.2,0,0,1,1.961,1.751v-9.7ZM63.544,221.6a6.774,6.774,0,0,0-.63-1.61,3,3,0,0,0-1.033-1.191,2.861,2.861,0,0,0-2.836-.017,2.575,2.575,0,0,0-.927,1.1,6.8,6.8,0,0,0-.525,1.61,9.589,9.589,0,0,0-.175,1.891,13.186,13.186,0,0,0,.193,2.4,5.213,5.213,0,0,0,.612,1.733,2.776,2.776,0,0,0,.945,1.05,2.4,2.4,0,0,0,1.3.35,2.8,2.8,0,0,0,1.331-.3,2.375,2.375,0,0,0,.91-.858,7.41,7.41,0,0,0,.577-1.226,6.948,6.948,0,0,0,.333-1.331q.035-.244.053-.472c.011-.152.029-.309.052-.473v-.21a1.019,1.019,0,0,1,.035-.245v-.49a7.029,7.029,0,0,0-.21-1.715" transform="translate(2259.978 -3195.763)" fill="#e50015"/>
    <path id="Path_10" data-name="Path 10" d="M91.166,105.453a21.134,21.134,0,0,0,2.727,5.67c.756.927,2.221,3.254,3.414,3.355,1.044.088,1.883-1.236,1.883-1.236s4.209-.062,5.061.559c1.736,1.265,3.082,5.482,3.082,5.482l1.685,7.848,21.227,11.751s-5.045-25.153-5.415-25.229c-5.631-1.158-8.475-1.8-17.5-9.142,0,0-.069-3.57-.069-5.061,7.1,5.513,14.733,9.26,20.972,8.73l.284,9.044,4-.216.044-8.519s7.572-2.094,8.514-5.233c0,0-.471-14.674-7.533-23.149-6.807-6.592-14.753-7.769-23.385-6.356S97.782,81.866,96.345,86.306c-2.07,6.4-1.059,6.366-1.217,16.254Z" transform="translate(2242.039 -3137.092)" fill="#fff"/>
    <g id="Group_3" data-name="Group 3" transform="translate(2333.195 -3063.636)" opacity="0.8">
      <g id="Group_2" data-name="Group 2" transform="translate(0 0)">
        <g id="Group_1" data-name="Group 1" clip-path="url(#clip-path)">
          <path id="Path_11" data-name="Path 11" d="M91.148,105.589s1.2,4.11,2.953,5.925c.766.793,2.027,3.08,3.129,3.08a2.149,2.149,0,0,0,1.952-1.172s4.075-.176,5.267.741c2,1.536,2.913,5.5,2.913,5.5l1.663,7.68,21.2,11.673s-7.667-22.371-7.975-22.531c-4.552-2.374-6.533-3.532-15.253-11.232,0,0,.044-4.343.216-5.689,6.542,5.078,14.733,9.309,21,8.809l.294,9.034,4-.206.059-8.485s2.106-1.983,4.14-3.685c1.356-1.135.534-4.721.2-6.458-.734-3.764-2.119-9.574-5.542-14.448-3.806-4.434-12.5-11.675-20.442-10.32-9.652,1.648-13.43,9-14.753,13.085-1.907,5.892-.856,6.547-1,15.655Z" transform="translate(-91.148 -73.64)" fill="#b3b3b3"/>
        </g>
      </g>
    </g>
    <path id="Path_12" data-name="Path 12" d="M174.513,134.52s-.883,2.648-6.651,5.179l-.589,26.073s5.827-6.827,6-10.947,1.236-20.3,1.236-20.3" transform="translate(2208.679 -3163.962)" fill="#fff"/>
    <path id="Path_13" data-name="Path 13" d="M172.439,140.65s.519.782-4.561,3.011l-.569,24.67s4.318-5.523,4.473-9.152.657-18.53.657-18.53" transform="translate(2208.664 -3166.649)" fill="#b3b3b3"/>
    <path id="Path_14" data-name="Path 14" d="M126.166,48.129s-3.472.079-4.944.079C117.927,43.029,78.3,30,80.809,71.279c0,0-12.242.627-11.457,21.973,0,0-1.682.429-1.727,0-1.439-13.768-3.983-32.966-.431-48.1,4.944-21.07,17.944-39.334,48.849-30.369l26.6-1.413s-16.715,17.617-16.479,34.763" transform="translate(2253.337 -3110.452)" fill="#e50015"/>
    <path id="Path_15" data-name="Path 15" d="M62.71,88.271A129.174,129.174,0,0,1,58.9,52.909,82.087,82.087,0,0,1,61.379,35.23a53.1,53.1,0,0,1,7.145-16.363A40.153,40.153,0,0,1,81.55,6.694a44.2,44.2,0,0,1,8.186-3.65,58.449,58.449,0,0,1,8.7-2.1A63.82,63.82,0,0,1,116.25.381a69.284,69.284,0,0,1,8.768,1.645,78.8,78.8,0,0,1,8.474,2.751,78.647,78.647,0,0,0-8.519-2.568A68.962,68.962,0,0,0,116.211.756a66.2,66.2,0,0,0-26.263,2.92A43.538,43.538,0,0,0,81.9,7.3a39.456,39.456,0,0,0-12.743,12,52.369,52.369,0,0,0-7.105,16.109,85.3,85.3,0,0,0-2.565,17.526,124.371,124.371,0,0,0,.467,17.76A132.769,132.769,0,0,0,62.71,88.271" transform="translate(2256.213 -3105)" fill="#fff"/>
    <path id="Path_16" data-name="Path 16" d="M153.687,21.213a31.838,31.838,0,0,1,1.714,3c.509,1.036.972,2.094,1.415,3.162A49.128,49.128,0,0,1,158.894,34l.327,1.709c.1.572.165,1.15.249,1.724.038.288.084.574.115.862l.07.869a17.294,17.294,0,0,1,.09,1.739l-.027,1.742c0,.58-.088,1.158-.133,1.734a14.03,14.03,0,0,1-.265,1.715c-.112.568-.238,1.131-.373,1.689-.273-2.374-.466-4.584-.814-6.793-.029-.275-.093-.549-.148-.823l-.135-.822-.131-.82c-.051-.272-.117-.544-.175-.815-.121-.543-.187-1.092-.307-1.634l-.369-1.624c-.229-1.088-.477-2.174-.762-3.255-.226-1.1-.559-2.167-.8-3.273-.56-2.191-1.123-4.393-1.618-6.713" transform="translate(2214.635 -3114.296)" fill="#b7001c"/>
  </g>
</svg>
