<svg xmlns="http://www.w3.org/2000/svg" width="23.106" height="23.286" viewBox="0 0 23.106 23.286">
  <path id="whatsapp" d="M14.817,13.4a6.868,6.868,0,0,1,1.467.662,6.517,6.517,0,0,1,1.347.8.638.638,0,0,1,.03.225,3.169,3.169,0,0,1-.256,1.143,2.019,2.019,0,0,1-1.068.985,3.557,3.557,0,0,1-1.534.4,8.127,8.127,0,0,1-2.858-.933,8.577,8.577,0,0,1-2.557-1.775A19.839,19.839,0,0,1,7.16,12.123,5.261,5.261,0,0,1,6.093,9.2v-.12A3.327,3.327,0,0,1,7.206,6.707a1.138,1.138,0,0,1,.782-.331,2.377,2.377,0,0,1,.271.023,2.419,2.419,0,0,0,.285.023.618.618,0,0,1,.4.1,1.085,1.085,0,0,1,.233.414q.12.3.5,1.324a8.939,8.939,0,0,1,.376,1.129,1.528,1.528,0,0,1-.519.865q-.519.55-.519.7a.429.429,0,0,0,.075.225,6.782,6.782,0,0,0,1.534,2.061,9.6,9.6,0,0,0,2.271,1.519.666.666,0,0,0,.331.106q.225,0,.812-.729t.782-.729Zm-3.053,7.973a9.2,9.2,0,0,0,3.663-.752,9.3,9.3,0,0,0,5.032-5.032,9.3,9.3,0,0,0,0-7.326,9.3,9.3,0,0,0-5.032-5.032,9.3,9.3,0,0,0-7.326,0A9.3,9.3,0,0,0,3.069,8.264a9.354,9.354,0,0,0,1.053,9.2l-1.188,3.5,3.64-1.158a9.25,9.25,0,0,0,5.189,1.564Zm0-20.789a11.022,11.022,0,0,1,4.4.9,11.212,11.212,0,0,1,6.04,6.04,11.176,11.176,0,0,1,0,8.8,11.212,11.212,0,0,1-6.04,6.04,11.015,11.015,0,0,1-4.4.9,11.169,11.169,0,0,1-5.491-1.414L0,23.872l2.046-6.092A11.277,11.277,0,0,1,1.324,7.528a11.212,11.212,0,0,1,6.04-6.04,11,11,0,0,1,4.4-.9Z" transform="translate(0 -0.585)" fill="#fafafa"/>
</svg>
