<svg id="calendar_today" xmlns="http://www.w3.org/2000/svg" width="28.078" height="28.078" viewBox="0 0 28.078 28.078">
  <path id="Path_278" data-name="Path 278" d="M0,0H28.078V28.078H0Z" fill="none"/>
  <path id="Path_279" data-name="Path 279" d="M23.059,3.34h-1.17V2.17a1.17,1.17,0,0,0-2.34,0V3.34H7.85V2.17a1.17,1.17,0,1,0-2.34,0V3.34H4.34A2.347,2.347,0,0,0,2,5.68V24.4a2.347,2.347,0,0,0,2.34,2.34H23.059A2.347,2.347,0,0,0,25.4,24.4V5.68A2.347,2.347,0,0,0,23.059,3.34ZM21.889,24.4H5.51a1.173,1.173,0,0,1-1.17-1.17V9.189H23.059V23.229A1.173,1.173,0,0,1,21.889,24.4Z" transform="translate(0.34 0.17)" fill="#809fb8"/>
</svg>
