<svg xmlns="http://www.w3.org/2000/svg" width="40" height="44" viewBox="0 0 40 44">
  <path id="profile" d="M86.554,891.8v-4.4a6.632,6.632,0,0,0-6.666-6.6H62.11a6.632,6.632,0,0,0-6.666,6.6v4.4a2.222,2.222,0,0,1-4.444,0v-4.4a11.056,11.056,0,0,1,11.11-11H79.888A11.058,11.058,0,0,1,91,887.4v4.4a2.223,2.223,0,0,1-4.446,0ZM59.888,861A11.112,11.112,0,1,1,71,872,11.057,11.057,0,0,1,59.888,861Zm4.444,0A6.667,6.667,0,1,0,71,854.4,6.634,6.634,0,0,0,64.332,861Z" transform="translate(-51 -850)" fill="#ea9597"/>
</svg>
