<svg xmlns="http://www.w3.org/2000/svg" width="22" height="22" viewBox="0 0 22 22">
  <path id="Form_33" data-name="Form 33" d="M467.85,831.151a27.6,27.6,0,0,1-2.093-1.973.941.941,0,0,1-.105-.092l-6.928-6.928A5.885,5.885,0,0,1,457,818v-2.114a29.2,29.2,0,0,1,.085-3,2.721,2.721,0,0,1,2.793-2.794,28.956,28.956,0,0,1,3.005-.087H465a5.886,5.886,0,0,1,4.161,1.724l6.928,6.928c.016.016.033.032.047.049a28.467,28.467,0,0,1,2.018,2.137,2.721,2.721,0,0,1,0,3.95,29.3,29.3,0,0,1-2.064,2.183q-.024.025-.05.048l0,.005-2.04,2.058a.785.785,0,0,1-.086.082,27.915,27.915,0,0,1-2.1,1.985,2.723,2.723,0,0,1-3.952,0Zm-7.783-19.395a1.129,1.129,0,0,0-1.31,1.312c-.07.627-.076,1.559-.076,2.816V818a4.2,4.2,0,0,0,1.232,2.971l6.839,6.839a.808.808,0,0,1,.1.089c.89.89,1.552,1.546,2.046,1.939s.758.483.926.483.434-.091.927-.484,1.155-1.048,2.044-1.937a.743.743,0,0,1,.062-.057l2.033-2.054c.014-.014.028-.028.042-.041l.007-.005c.864-.864,1.508-1.518,1.894-2s.484-.758.485-.926-.09-.434-.483-.927-1.049-1.156-1.939-2.045c-.014-.014-.028-.028-.042-.043l-6.886-6.885A4.2,4.2,0,0,0,465,811.681h-2.114C461.625,811.681,460.693,811.686,460.067,811.757Zm1.153,4.119a1.664,1.664,0,1,1,1.664,1.673A1.668,1.668,0,0,1,461.22,815.876Z" transform="translate(-457 -810)" fill="#5e6774"/>
</svg>
