<svg xmlns="http://www.w3.org/2000/svg" width="49" height="49" viewBox="0 0 49 49">
  <path id="Exclusion_1" data-name="Exclusion 1" d="M-463.015-538h0a6.879,6.879,0,0,1-4.309-1.852,59.652,59.652,0,0,1-4.5-4.238l-.067-.067a1.856,1.856,0,0,1-.228-.2l-15.116-15.115a12.786,12.786,0,0,1-2.783-4.165,12.766,12.766,0,0,1-.978-4.912v-4.88a60.706,60.706,0,0,1,.187-6.284,7.111,7.111,0,0,1,1.733-4.359,7.112,7.112,0,0,1,4.361-1.737,59.7,59.7,0,0,1,6.18-.19h4.99a12.769,12.769,0,0,1,4.912.978,12.776,12.776,0,0,1,4.164,2.783l15.115,15.115a1.411,1.411,0,0,1,.1.107l.128.128a59.543,59.543,0,0,1,4.274,4.536A7.09,7.09,0,0,1-443-558.043a7.1,7.1,0,0,1-1.855,4.309,60.491,60.491,0,0,1-4.285,4.546l-.217.217a1.4,1.4,0,0,1-.107.1l-.011.011-4.452,4.491a1.852,1.852,0,0,1-.186.18l-.056.056a60.371,60.371,0,0,1-4.536,4.274A7.109,7.109,0,0,1-463.015-538Zm-15.148-38.831a3.644,3.644,0,0,0-3.631,3.65,3.645,3.645,0,0,0,3.631,3.65,3.645,3.645,0,0,0,3.631-3.65A3.645,3.645,0,0,0-478.163-576.831Z" transform="translate(491.5 586.5)" fill="#f9b959" stroke="rgba(0,0,0,0)" stroke-width="1"/>
</svg>
