<svg xmlns="http://www.w3.org/2000/svg" width="26.01" height="21" viewBox="0 0 26.01 21">
  <path id="accounting" d="M57,1014a28.9,28.9,0,0,0-3,.086A2.86,2.86,0,0,0,51.086,1017a28.744,28.744,0,0,0-.086,3v7c0,2.25-.14,1.581.635,2.727a2.773,2.773,0,0,0,1.7,1.076,9,9,0,0,0,1.7.17c.012.361.024.716.059,1.023A2.859,2.859,0,0,0,58,1034.914c.532.06,1.173.074,1.881.08A.94.94,0,0,0,60,1035H71a28.81,28.81,0,0,0,3-.086A2.859,2.859,0,0,0,76.914,1032a28.823,28.823,0,0,0,.086-3v-2a.982.982,0,0,0-.006-.119c-.006-.707-.02-1.346-.08-1.877A2.859,2.859,0,0,0,74,1022.086c-.309-.035-.667-.046-1.029-.059a1,1,0,0,0,.027-.254,12.057,12.057,0,0,0-.18-2.385,2.8,2.8,0,0,0-1.053-1.73c-1.145-.8-.49-.658-2.764-.658H66.346a7.77,7.77,0,0,1-2.912-.391,2.458,2.458,0,0,1-1-.783,4.719,4.719,0,0,0-1.713-1.279,9.556,9.556,0,0,0-3.648-.545h0l-.07,0Zm0,2a7.965,7.965,0,0,1,2.949.391,2.448,2.448,0,0,1,1.008.783,4.717,4.717,0,0,0,1.7,1.279,9.471,9.471,0,0,0,3.691.547H69c2.272,0,1.408.151,1.615.3.1.073.162.125.246.516a11.352,11.352,0,0,1,.135,1.981.99.99,0,0,0,.021.207h-.672a7.771,7.771,0,0,1-2.912-.391,2.46,2.46,0,0,1-1-.783,4.718,4.718,0,0,0-1.713-1.279,9.565,9.565,0,0,0-3.65-.545l-.07,0a28.863,28.863,0,0,0-3,.086A2.86,2.86,0,0,0,55.086,1022a28.745,28.745,0,0,0-.086,3v3.969a7.906,7.906,0,0,1-1.223-.115c-.371-.085-.413-.138-.486-.246-.146-.216-.291.641-.291-1.607v-7c0-1.247.006-2.168.074-2.773s.185-.812.264-.891.284-.194.889-.262S55.754,1016,57,1016Zm4,5a7.966,7.966,0,0,1,2.949.391,2.447,2.447,0,0,1,1.008.783,4.715,4.715,0,0,0,1.7,1.279,9.473,9.473,0,0,0,3.691.547H71c1.247,0,2.168.006,2.773.074s.812.185.891.264.194.284.262.889S75,1026.754,75,1028v1c0,1.246-.006,2.168-.074,2.773s-.183.81-.262.889-.285.2-.891.264S72.247,1033,71,1033H61c-1.247,0-2.168-.006-2.773-.074s-.812-.185-.891-.264-.194-.283-.262-.889S57,1030.246,57,1029v-4c0-1.247.006-2.168.074-2.773s.185-.812.264-.891.284-.194.889-.262S59.754,1021,61,1021Z" transform="translate(-50.99 -1014)" fill="#5e6774"/>
</svg>
