<svg xmlns="http://www.w3.org/2000/svg" width="19.006" height="21" viewBox="0 0 19.006 21">
  <path id="Form_30" data-name="Form 30" d="M377.833,744a2.858,2.858,0,0,1-2.851-2.864V725.864A2.858,2.858,0,0,1,377.833,723h4.751a.955.955,0,0,1,0,1.91h-4.751a.952.952,0,0,0-.95.954v15.272a.953.953,0,0,0,.95.955h4.751a.954.954,0,0,1,0,1.909Zm10.731-6.007a.958.958,0,0,1,0-1.35l2.179-2.188h-9.109a.955.955,0,0,1,0-1.91h9.109l-2.178-2.188a.953.953,0,1,1,1.344-1.35l3.787,3.8a.957.957,0,0,1,.121.143l0,0,.01.015,0,.007.008.012.006.009.006.01.006.011,0,.009.007.012,0,.008.006.012,0,.009.006.012,0,.009.005.012,0,.01,0,.011,0,.011,0,.01,0,.013,0,.009.005.014,0,.008.005.015,0,.006.005.016,0,.006,0,.017v.005l0,.017v.005l0,.017v.005l0,.018v.005l0,.017v.007l0,.016v.008l0,.015v.069c0,.007,0,.013,0,.02v0c0,.008,0,.016,0,.024h0s0,0,0,.006,0,.011,0,.017,0,.012,0,.018v0c0,.007,0,.015,0,.022h0a.954.954,0,0,1-.293.623l-3.784,3.8a.949.949,0,0,1-1.344,0Z" transform="translate(-374.981 -723)" fill="#5e6774"/>
</svg>
