<svg id="speed" xmlns="http://www.w3.org/2000/svg" width="36.006" height="36.006" viewBox="0 0 36.006 36.006">
  <path id="Path_298" data-name="Path 298" d="M0,0H36.006V36.006H0Z" fill="none"/>
  <path id="Path_299" data-name="Path 299" d="M29.559,10.837l-1.845,2.775a12,12,0,0,1-.33,11.372H6.59A12,12,0,0,1,22.357,8.257l2.775-1.845A15,15,0,0,0,4.009,26.485a3,3,0,0,0,2.58,1.5H27.368a3,3,0,0,0,2.61-1.5,15,15,0,0,0-.405-15.663Z" transform="translate(1.016 2.02)" fill="#ea9597"/>
  <path id="Path_300" data-name="Path 300" d="M10.883,19.657a3,3,0,0,0,4.246,0L23.621,6.92,10.883,15.411a3,3,0,0,0,0,4.246Z" transform="translate(5.004 3.462)" fill="#ea9597"/>
</svg>
