<svg xmlns="http://www.w3.org/2000/svg" width="25" height="20" viewBox="0 0 25 20">
  <path id="sales" d="M58,372a34.447,34.447,0,0,0-3.576.1,3.235,3.235,0,0,0-3.322,3.324A5.5,5.5,0,0,0,51,377v10a5.477,5.477,0,0,0,.1,1.576,3.235,3.235,0,0,0,3.324,3.322A34.664,34.664,0,0,0,58,392H69a34.442,34.442,0,0,0,3.576-.1,3.235,3.235,0,0,0,3.322-3.324A5.5,5.5,0,0,0,76,387V377a5.473,5.473,0,0,0-.1-1.576,3.235,3.235,0,0,0-3.324-3.322A34.634,34.634,0,0,0,69,372Zm0,2H69c1.5,0,2.6.006,3.35.09a1.343,1.343,0,0,1,1.561,1.559A3.835,3.835,0,0,1,74,377v1H70a1,1,0,0,0-.219.022,3.984,3.984,0,0,0,0,7.957A.992.992,0,0,0,70,386h4v1a3.844,3.844,0,0,1-.09,1.35,1.343,1.343,0,0,1-1.559,1.561c-.746.084-1.855.09-3.352.09H58c-.382,0-.668-.006-1-.008V374.007c.332,0,.618-.008,1-.008Zm-3,.07v15.859c-.1-.008-.256-.009-.35-.02a1.343,1.343,0,0,1-1.56-1.559A3.83,3.83,0,0,1,53,387V377a3.834,3.834,0,0,1,.09-1.349,1.343,1.343,0,0,1,1.559-1.561c.094-.01.246-.011.352-.02ZM70,380h4v4H70a2,2,0,1,1,0-4Zm0,1a1,1,0,1,0,1,1A1,1,0,0,0,70,381Z" transform="translate(-51 -372)" fill="#5e6774"/>
</svg>
