<svg xmlns="http://www.w3.org/2000/svg" width="85.482" height="83.887" viewBox="0 0 85.482 83.887">
  <g id="Layer_2" data-name="Layer 2" transform="translate(0.5 0.454)">
    <g id="Layer_1" data-name="Layer 1" transform="translate(0 0.046)">
      <path id="Path_12724" data-name="Path 12724" d="M14.755,22.831a6.6,6.6,0,1,1,6.556-6.6,6.6,6.6,0,0,1-6.556,6.6Zm0-10.678a3.867,3.867,0,1,1,0,.118Z" transform="translate(23.757 28.022)" fill="#f66a78" stroke="#f66a78" stroke-width="1"/>
      <path id="Path_12725" data-name="Path 12725" d="M14.755,22.831a6.6,6.6,0,1,1,6.556-6.6,6.6,6.6,0,0,1-6.556,6.6Zm0-10.678a3.867,3.867,0,1,1,0,.118Z" transform="translate(23.757 28.022)" fill="#f66a78" stroke="#f66a78" stroke-width="1"/>
      <path id="Path_12726" data-name="Path 12726" d="M22.244,40.469A16.684,16.684,0,1,1,38.929,23.784,16.684,16.684,0,0,1,22.244,40.469Zm0-30.856A14.211,14.211,0,1,0,36.456,23.784,14.211,14.211,0,0,0,22.244,9.612Z" transform="translate(16.267 20.591)" fill="#f66a78" stroke="#f66a78" stroke-width="1"/>
      <path id="Path_12727" data-name="Path 12727" d="M30.29,59.29A27.48,27.48,0,1,1,57.77,31.81,27.48,27.48,0,0,1,30.29,59.29Zm0-52.33A24.928,24.928,0,1,0,55.218,31.889,24.928,24.928,0,0,0,30.29,6.96Z" transform="translate(8.221 12.486)" fill="#f66a78" stroke="#f66a78" stroke-width="1"/>
      <path id="Path_12728" data-name="Path 12728" d="M38.511,78.563A38.511,38.511,0,1,1,77.023,40.051,38.511,38.511,0,0,1,38.511,78.563Zm0-74.589a36.054,36.054,0,1,1,0,.039Z" transform="translate(0 4.324)" fill="#f66a78" stroke="#f66a78" stroke-width="1"/>
      <path id="Path_12729" data-name="Path 12729" d="M27.705,4.344h-7.5a1.217,1.217,0,1,1,0-2.434h7.5a1.217,1.217,0,0,1,0,2.434Z" transform="translate(55.56 5.406)" fill="#f66a78" stroke="#f66a78" stroke-width="1"/>
      <path id="Path_12730" data-name="Path 12730" d="M20.178,9.8A1.217,1.217,0,0,1,19,8.58v-7.5a1.256,1.256,0,0,1,2.473,0v7.5a1.217,1.217,0,0,1-1.3,1.217Z" transform="translate(55.589 -0.046)" fill="#f66a78" stroke="#f66a78" stroke-width="1"/>
      <path id="Path_12731" data-name="Path 12731" d="M10.751,40.21a1.178,1.178,0,0,1-.9-.393,1.217,1.217,0,0,1,0-1.727L47.182,2.248A1.236,1.236,0,1,1,48.87,4.054L11.5,39.857a1.217,1.217,0,0,1-.746.353Z" transform="translate(27.761 5.421)" fill="#f66a78" stroke="#f66a78" stroke-width="1"/>
    </g>
  </g>
</svg>
