<svg id="Group_37" data-name="Group 37" xmlns="http://www.w3.org/2000/svg" xmlns:xlink="http://www.w3.org/1999/xlink" width="51.369" height="50.468" viewBox="0 0 51.369 50.468">
  <defs>
    <clipPath id="clip-path">
      <rect id="Rectangle_12" data-name="Rectangle 12" width="51.369" height="50.468" fill="#3a36db"/>
    </clipPath>
  </defs>
  <g id="Group_36" data-name="Group 36" transform="translate(0 0)" clip-path="url(#clip-path)">
    <path id="Path_89" data-name="Path 89" d="M47.314,0H4.055A4.067,4.067,0,0,0,0,4.055V36.5a4.067,4.067,0,0,0,4.055,4.055H47.314A4.067,4.067,0,0,0,51.369,36.5V4.055A4.067,4.067,0,0,0,47.314,0M9.064,20.36l10.889-7.182a2.025,2.025,0,0,1,2.614.327l2.821,3.1,9.544-5.725-1.557-2.6,10.109-.169-4.907,8.84-1.559-2.6L26.051,20.932a2.024,2.024,0,0,1-2.54-.372l-2.773-3.042L11.3,23.745A2.028,2.028,0,0,1,9.064,20.36m34.194,9.38H33.8v-2.7h9.463ZM47.314,36.5H4.055V33.8H47.314Z" transform="translate(0 0)" fill="#3a36db"/>
    <path id="Path_90" data-name="Path 90" d="M32.405,40.959a2.021,2.021,0,0,1-1.434-.593l-9.876-9.878a2.027,2.027,0,0,1,2.867-2.867L33.84,37.5a2.028,2.028,0,0,1-1.434,3.462" transform="translate(7.213 9.509)" fill="#3a36db"/>
    <path id="Path_91" data-name="Path 91" d="M9.221,40.959A2.028,2.028,0,0,1,7.786,37.5l9.878-9.876a2.027,2.027,0,0,1,2.867,2.867l-9.876,9.878a2.021,2.021,0,0,1-1.434.593" transform="translate(2.531 9.509)" fill="#3a36db"/>
  </g>
</svg>
