<svg xmlns="http://www.w3.org/2000/svg" width="44" height="44" viewBox="0 0 44 44">
  <g id="fastfood" transform="translate(0 0)">
    <path id="Path_386" data-name="Path 386" d="M0,0H44V44H0Z" transform="translate(0 0)" fill="none"/>
    <path id="Path_387" data-name="Path 387" d="M1,39.152a1.832,1.832,0,0,0,1.837,1.837H26.459A1.832,1.832,0,0,0,28.3,39.152V37.37H1ZM14.639,15.53C7.819,15.53,1,19.185,1,26.459H28.277C28.277,19.185,21.458,15.53,14.639,15.53ZM5.764,22.822c2.019-2.819,6.31-3.655,8.874-3.655s6.856.837,8.874,3.655ZM1,30.1H28.277v3.637H1ZM31.914,8.274V1H28.277V8.274H19.185l.418,3.637H36.988L34.442,37.37H31.914v3.637h3.128a3.021,3.021,0,0,0,2.964-2.673l3-30.06Z" transform="translate(0.996 0.997)" fill="#ea9597"/>
  </g>
</svg>
