<svg id="speed" xmlns="http://www.w3.org/2000/svg" width="44" height="44" viewBox="0 0 44 44">
  <path id="Path_298" data-name="Path 298" d="M0,0H44V44H0Z" fill="none"/>
  <path id="Path_299" data-name="Path 299" d="M36.9,13.107l-2.338,3.7a16.754,16.754,0,0,1-.418,15.168H7.806A16.662,16.662,0,0,1,9.915,13,14.658,14.658,0,0,1,27.782,9.665L31.3,7.2A18.283,18.283,0,0,0,7.946,9.543,20.792,20.792,0,0,0,4.537,33.978a3.772,3.772,0,0,0,3.269,2H34.13a3.77,3.77,0,0,0,3.307-2,20.915,20.915,0,0,0-.513-20.891Z" transform="translate(1.016 2.02)" fill="#ea9597"/>
  <path id="Path_300" data-name="Path 300" d="M10.883,19.657a3,3,0,0,0,4.246,0L23.621,6.92,10.883,15.411a3,3,0,0,0,0,4.246Z" transform="translate(10.363 7.169)" fill="#ea9597"/>
</svg>
